<svg xmlns="http://www.w3.org/2000/svg" xmlns:svg="http://www.w3.org/2000/svg" id="svg2" width="1598" height="2160" version="1.1" viewBox="0 0 1598 2160" xml:space="preserve"><metadata id="metadata8"/><defs id="defs6"><clipPath id="clipPath20" clipPathUnits="userSpaceOnUse"><path id="path18" d="M 0,180 H 137.274 V 0 H 0 Z"/></clipPath><clipPath id="clipPath40" clipPathUnits="userSpaceOnUse"><path id="path38" d="M 34.9634,153.22 H 103.569 V 27.4196 H 34.9634 Z"/></clipPath><clipPath id="clipPath44" clipPathUnits="userSpaceOnUse"><path id="path42" d="M 69.266,153.22 34.963,72.2 69.266,27.419 103.569,72.2 Z"/></clipPath><clipPath id="clipPath48" clipPathUnits="userSpaceOnUse"><path id="path46" d="M -32768,32767 H 32767 V -32768 H -32768 Z"/></clipPath><linearGradient id="linearGradient56" x1="0" x2="1" y1="0" y2="0" gradientTransform="matrix(27.366587,37.337978,37.337978,-27.366587,37.462574,45.91819)" gradientUnits="userSpaceOnUse" spreadMethod="pad"><stop style="stop-opacity:1;stop-color:#fff" id="stop50" offset="0"/><stop style="stop-opacity:0;stop-color:#fff" id="stop52" offset=".572"/><stop style="stop-opacity:0;stop-color:#fff" id="stop54" offset="1"/></linearGradient><mask id="mask58" width="1" height="1" x="0" y="0" maskUnits="userSpaceOnUse"><g id="g68"><g id="g66" clip-path="url(#clipPath48)"><g id="g64"><g id="g62"><path d="M -32768,32767 H 32767 V -32768 H -32768 Z" style="fill:url(#linearGradient56);stroke:none" id="path60"/></g></g></g></g></mask><linearGradient id="linearGradient76" x1="0" x2="1" y1="0" y2="0" gradientTransform="matrix(27.366587,37.337978,37.337978,-27.366587,37.462574,45.91819)" gradientUnits="userSpaceOnUse" spreadMethod="pad"><stop style="stop-opacity:1;stop-color:#fff" id="stop70" offset="0"/><stop style="stop-opacity:1;stop-color:#fff" id="stop72" offset=".572"/><stop style="stop-opacity:1;stop-color:#fff" id="stop74" offset="1"/></linearGradient><clipPath id="clipPath102" clipPathUnits="userSpaceOnUse"><path id="path100" d="m 52.84,169.619 c -0.961,-0.143 -1.86,-0.498 -2.652,-1.015 v 0 l 19.093,-15.863 19.067,15.863 c -0.792,0.517 -1.691,0.872 -2.654,1.015 v 0 c -3.699,0.556 -10.164,1.365 -16.426,1.365 v 0 c -6.263,0 -12.728,-0.809 -16.428,-1.365"/></clipPath><clipPath id="clipPath110" clipPathUnits="userSpaceOnUse"><path id="path108" d="M -32768,32767 H 32767 V -32768 H -32768 Z"/></clipPath><linearGradient id="linearGradient116" x1="0" x2="1" y1="0" y2="0" gradientTransform="matrix(38.15987,0,0,-38.15987,50.187824,161.86177)" gradientUnits="userSpaceOnUse" spreadMethod="pad"><stop style="stop-opacity:0;stop-color:#fff" id="stop112" offset="0"/><stop style="stop-opacity:1;stop-color:#fff" id="stop114" offset="1"/></linearGradient><mask id="mask118" width="1" height="1" x="0" y="0" maskUnits="userSpaceOnUse"><g id="g128"><g id="g126" clip-path="url(#clipPath110)"><g id="g124"><g id="g122"><path d="M -32768,32767 H 32767 V -32768 H -32768 Z" style="fill:url(#linearGradient116);stroke:none" id="path120"/></g></g></g></g></mask><linearGradient id="linearGradient138" x1="0" x2="1" y1="0" y2="0" gradientTransform="matrix(38.15987,0,0,-38.15987,50.187824,161.86177)" gradientUnits="userSpaceOnUse" spreadMethod="pad"><stop style="stop-opacity:1;stop-color:#fff" id="stop134" offset="0"/><stop style="stop-opacity:1;stop-color:#fff" id="stop136" offset="1"/></linearGradient><clipPath id="clipPath148" clipPathUnits="userSpaceOnUse"><path id="path146" d="M 48.11,166.462 C 42.569,157.306 23.9,125.695 9.459,92.112 v 0 C 9.239,91.601 9.105,91.064 9.018,90.521 v 0 l 60.263,62.22 -19.093,15.863 c -0.833,-0.544 -1.547,-1.267 -2.078,-2.142"/></clipPath><clipPath id="clipPath156" clipPathUnits="userSpaceOnUse"><path id="path154" d="M -32768,32767 H 32767 V -32768 H -32768 Z"/></clipPath><linearGradient id="linearGradient162" x1="0" x2="1" y1="0" y2="0" gradientTransform="matrix(44.420986,-0.7593331,-0.7593331,-44.420986,24.437788,129.65071)" gradientUnits="userSpaceOnUse" spreadMethod="pad"><stop style="stop-opacity:0;stop-color:#fff" id="stop158" offset="0"/><stop style="stop-opacity:1;stop-color:#fff" id="stop160" offset="1"/></linearGradient><mask id="mask164" width="1" height="1" x="0" y="0" maskUnits="userSpaceOnUse"><g id="g174"><g id="g172" clip-path="url(#clipPath156)"><g id="g170"><g id="g168"><path d="M -32768,32767 H 32767 V -32768 H -32768 Z" style="fill:url(#linearGradient162);stroke:none" id="path166"/></g></g></g></g></mask><linearGradient id="linearGradient184" x1="0" x2="1" y1="0" y2="0" gradientTransform="matrix(44.420986,-0.7593331,-0.7593331,-44.420986,24.437788,129.65071)" gradientUnits="userSpaceOnUse" spreadMethod="pad"><stop style="stop-opacity:1;stop-color:#fff" id="stop180" offset="0"/><stop style="stop-opacity:1;stop-color:#fff" id="stop182" offset="1"/></linearGradient><clipPath id="clipPath194" clipPathUnits="userSpaceOnUse"><path id="path192" d="M 0,180 H 137.274 V 0 H 0 Z"/></clipPath><clipPath id="clipPath202" clipPathUnits="userSpaceOnUse"><path id="path200" d="M 8.92563,152.74 H 69.2814 V 31.1667 H 8.92563 Z"/></clipPath><clipPath id="clipPath206" clipPathUnits="userSpaceOnUse"><path id="path204" d="M 34.978,71.72 69.281,152.741 9.018,90.521 C 8.886,89.693 8.889,88.845 9.07,88.015 10.606,80.953 16.035,57.35 24.971,32.741 c 0.206,-0.566 0.501,-1.088 0.845,-1.575 z"/></clipPath><clipPath id="clipPath210" clipPathUnits="userSpaceOnUse"><path id="path208" d="M -32768,32767 H 32767 V -32768 H -32768 Z"/></clipPath><linearGradient id="linearGradient220" x1="0" x2="1" y1="0" y2="0" gradientTransform="matrix(34.706574,-30.729778,-30.729778,-34.706574,26.661245,110.44759)" gradientUnits="userSpaceOnUse" spreadMethod="pad"><stop style="stop-opacity:1;stop-color:#fff" id="stop212" offset="0"/><stop style="stop-opacity:1;stop-color:#fff" id="stop214" offset=".278"/><stop style="stop-opacity:0;stop-color:#fff" id="stop216" offset=".663"/><stop style="stop-opacity:0;stop-color:#fff" id="stop218" offset="1"/></linearGradient><mask id="mask222" width="1" height="1" x="0" y="0" maskUnits="userSpaceOnUse"><g id="g232"><g id="g230" clip-path="url(#clipPath210)"><g id="g228"><g id="g226"><path d="M -32768,32767 H 32767 V -32768 H -32768 Z" style="fill:url(#linearGradient220);stroke:none" id="path224"/></g></g></g></g></mask><linearGradient id="linearGradient242" x1="0" x2="1" y1="0" y2="0" gradientTransform="matrix(34.706574,-30.729778,-30.729778,-34.706574,26.661245,110.44759)" gradientUnits="userSpaceOnUse" spreadMethod="pad"><stop style="stop-opacity:1;stop-color:#fff" id="stop234" offset="0"/><stop style="stop-opacity:1;stop-color:#fff" id="stop236" offset=".278"/><stop style="stop-opacity:1;stop-color:#fff" id="stop238" offset=".663"/><stop style="stop-opacity:1;stop-color:#fff" id="stop240" offset="1"/></linearGradient><clipPath id="clipPath268" clipPathUnits="userSpaceOnUse"><path id="path266" d="M 25.8161,71.7205 H 69.2814 V 7.65755 H 25.8161 Z"/></clipPath><clipPath id="clipPath272" clipPathUnits="userSpaceOnUse"><path id="path270" d="m 25.816,31.166 c 0.471,-0.664 1.046,-1.252 1.729,-1.713 C 32.674,25.987 48.038,16.05 66.672,8.18 67.503,7.828 68.392,7.656 69.281,7.657 V 26.94 L 34.978,71.72 Z"/></clipPath><clipPath id="clipPath276" clipPathUnits="userSpaceOnUse"><path id="path274" d="M -32768,32767 H 32767 V -32768 H -32768 Z"/></clipPath><linearGradient id="linearGradient282" x1="0" x2="1" y1="0" y2="0" gradientTransform="matrix(-16.350126,-24.715305,-24.715305,16.350126,62.997124,56.11599)" gradientUnits="userSpaceOnUse" spreadMethod="pad"><stop style="stop-opacity:1;stop-color:#fff" id="stop278" offset="0"/><stop style="stop-opacity:0;stop-color:#fff" id="stop280" offset="1"/></linearGradient><mask id="mask284" width="1" height="1" x="0" y="0" maskUnits="userSpaceOnUse"><g id="g294"><g id="g292" clip-path="url(#clipPath276)"><g id="g290"><g id="g288"><path d="M -32768,32767 H 32767 V -32768 H -32768 Z" style="fill:url(#linearGradient282);stroke:none" id="path286"/></g></g></g></g></mask><linearGradient id="linearGradient300" x1="0" x2="1" y1="0" y2="0" gradientTransform="matrix(-16.350126,-24.715305,-24.715305,16.350126,62.997124,56.11599)" gradientUnits="userSpaceOnUse" spreadMethod="pad"><stop style="stop-opacity:1;stop-color:#fff" id="stop296" offset="0"/><stop style="stop-opacity:1;stop-color:#fff" id="stop298" offset="1"/></linearGradient><clipPath id="clipPath326" clipPathUnits="userSpaceOnUse"><path id="path324" d="M 69.2814,71.7205 H 112.74 V 7.65756 H 69.2814 Z"/></clipPath><clipPath id="clipPath330" clipPathUnits="userSpaceOnUse"><path id="path328" d="M 103.584,71.72 69.281,26.94 V 7.657 c 0.88,0.002 1.759,0.175 2.582,0.523 18.635,7.87 33.998,17.807 39.127,21.273 0.693,0.468 1.276,1.068 1.75,1.745 z"/></clipPath><clipPath id="clipPath334" clipPathUnits="userSpaceOnUse"><path id="path332" d="M -32768,32767 H 32767 V -32768 H -32768 Z"/></clipPath><linearGradient id="linearGradient342" x1="0" x2="1" y1="0" y2="0" gradientTransform="matrix(26.076679,-12.136224,-12.136224,-26.076679,77.917152,43.652183)" gradientUnits="userSpaceOnUse" spreadMethod="pad"><stop style="stop-opacity:1;stop-color:#fff" id="stop336" offset="0"/><stop style="stop-opacity:0;stop-color:#fff" id="stop338" offset=".438"/><stop style="stop-opacity:0;stop-color:#fff" id="stop340" offset="1"/></linearGradient><mask id="mask344" width="1" height="1" x="0" y="0" maskUnits="userSpaceOnUse"><g id="g354"><g id="g352" clip-path="url(#clipPath334)"><g id="g350"><g id="g348"><path d="M -32768,32767 H 32767 V -32768 H -32768 Z" style="fill:url(#linearGradient342);stroke:none" id="path346"/></g></g></g></g></mask><linearGradient id="linearGradient362" x1="0" x2="1" y1="0" y2="0" gradientTransform="matrix(26.076679,-12.136224,-12.136224,-26.076679,77.917152,43.652183)" gradientUnits="userSpaceOnUse" spreadMethod="pad"><stop style="stop-opacity:1;stop-color:#fff" id="stop356" offset="0"/><stop style="stop-opacity:1;stop-color:#fff" id="stop358" offset=".438"/><stop style="stop-opacity:1;stop-color:#fff" id="stop360" offset="1"/></linearGradient><clipPath id="clipPath388" clipPathUnits="userSpaceOnUse"><path id="path386" d="M 69.2814,152.74 H 129.61 V 31.1976 H 69.2814 Z"/></clipPath><clipPath id="clipPath392" clipPathUnits="userSpaceOnUse"><path id="path390" d="m 103.584,71.72 9.156,-40.522 c 0.335,0.477 0.623,0.989 0.824,1.543 8.936,24.609 14.365,48.212 15.901,55.274 0.183,0.841 0.185,1.699 0.047,2.537 l -60.231,62.189 z"/></clipPath><clipPath id="clipPath396" clipPathUnits="userSpaceOnUse"><path id="path394" d="M -32768,32767 H 32767 V -32768 H -32768 Z"/></clipPath><linearGradient id="linearGradient404" x1="0" x2="1" y1="0" y2="0" gradientTransform="matrix(25.475777,16.350124,16.350124,-25.475777,92.84536,93.146507)" gradientUnits="userSpaceOnUse" spreadMethod="pad"><stop style="stop-opacity:1;stop-color:#fff" id="stop398" offset="0"/><stop style="stop-opacity:0;stop-color:#fff" id="stop400" offset=".513"/><stop style="stop-opacity:0;stop-color:#fff" id="stop402" offset="1"/></linearGradient><mask id="mask406" width="1" height="1" x="0" y="0" maskUnits="userSpaceOnUse"><g id="g416"><g id="g414" clip-path="url(#clipPath396)"><g id="g412"><g id="g410"><path d="M -32768,32767 H 32767 V -32768 H -32768 Z" style="fill:url(#linearGradient404);stroke:none" id="path408"/></g></g></g></g></mask><linearGradient id="linearGradient424" x1="0" x2="1" y1="0" y2="0" gradientTransform="matrix(25.475777,16.350124,16.350124,-25.475777,92.84536,93.146507)" gradientUnits="userSpaceOnUse" spreadMethod="pad"><stop style="stop-opacity:1;stop-color:#fff" id="stop418" offset="0"/><stop style="stop-opacity:1;stop-color:#fff" id="stop420" offset=".513"/><stop style="stop-opacity:1;stop-color:#fff" id="stop422" offset="1"/></linearGradient></defs><g id="g10" transform="matrix(1.3333333,0,0,-1.3333333,-32.963274,2166.1175)"><g id="g1181" transform="matrix(1.0375669,0,0,1.0375669,-23.418248,-30.608966)" style="stroke-width:.96379328"><g id="g26" transform="matrix(9.5596091,0,0,9.5596091,825.60012,1552.0412)" style="stroke-width:.10081931"><path id="path28" style="fill:#231f20;fill-opacity:1;fill-rule:nonzero;stroke:none;stroke-width:.10081931" d="m 0,0 c -1.033,1.707 -2.756,2.861 -4.729,3.157 -3.7,0.556 -10.165,1.364 -16.428,1.364 -6.262,0 -12.727,-0.808 -16.427,-1.364 -1.973,-0.296 -3.696,-1.45 -4.729,-3.157 -5.542,-9.156 -24.21,-40.768 -38.652,-74.35 -0.556,-1.293 -0.688,-2.722 -0.389,-4.097 1.536,-7.062 6.964,-30.665 15.9,-55.274 0.487,-1.341 1.393,-2.489 2.575,-3.288 5.129,-3.467 20.492,-13.403 39.127,-21.273 1.652,-0.698 3.538,-0.698 5.19,0 18.635,7.87 33.999,17.806 39.128,21.273 1.182,0.799 2.087,1.947 2.574,3.288 8.936,24.609 14.364,48.212 15.901,55.274 0.299,1.375 0.167,2.804 -0.39,4.097 C 24.21,-40.768 5.542,-9.156 0,0"/></g><g id="g30" transform="matrix(9.5596091,0,0,9.5596091,837.0076,1063.5768)" style="stroke-width:.10081931"><path id="path32" style="fill:#fff;fill-opacity:1;fill-rule:nonzero;stroke:none;stroke-width:.10081931" d="m 0,0 c -1.828,0 -3.309,-1.481 -3.309,-3.309 0,-1.828 1.481,-3.309 3.309,-3.309 1.827,0 3.309,1.481 3.309,3.309 C 3.309,-1.481 1.827,0 0,0 m 14.875,-45.321 c 0,-20.421 -16.667,-37.225 -37.225,-37.225 -20.559,0 -37.225,16.764 -37.225,37.225 0,8.561 3.06,15.47 6.515,15.47 3.455,0 0.96,-9.212 5.758,-9.404 8.057,-0.322 7.181,28.466 12.284,29.366 3.263,0.576 3.255,-10.201 7.738,-8.254 4.482,1.949 3.202,27.255 8.193,27.255 4.99,0 4.99,-41.841 12.284,-42.993 7.078,-1.117 4.99,15.547 9.021,15.547 4.031,0 12.657,-15.739 12.657,-26.987"/></g><g id="g1390" transform="matrix(9.5596091,0,0,9.5596091,1395.1205,-39.272316)" style="stroke-width:.10081931"><g id="g34" transform="translate(-150)" style="stroke-width:.10081931"><g id="g94" style="stroke-width:.10081931"><g id="g92" clip-path="url(#clipPath40)" style="opacity:.39999402;stroke-width:.10081931"><g id="g90" style="stroke-width:.10081931"><g id="g88" clip-path="url(#clipPath44)" style="stroke-width:.10081931"><g id="g86" style="stroke-width:.10081931"><g id="g84" mask="url(#mask58)" style="stroke-width:.10081931"><g id="g82" style="stroke-width:.10081931"><path d="M 69.266,153.22 34.963,72.2 69.266,27.419 103.569,72.2 Z" style="fill:url(#linearGradient76);stroke:none;stroke-width:.10081931" id="path80"/></g></g></g></g></g></g></g></g><g id="g96" transform="translate(-150)" style="stroke-width:.10081931"><g id="g98" clip-path="url(#clipPath102)" style="stroke-width:.10081931"><g id="g104" style="stroke-width:.10081931"><g id="g130" mask="url(#mask118)" style="stroke-width:.10081931"><g id="g132" style="stroke-width:.10081931"><path d="m 52.84,169.619 c -0.961,-0.143 -1.86,-0.498 -2.652,-1.015 v 0 l 19.093,-15.863 19.067,15.863 c -0.792,0.517 -1.691,0.872 -2.654,1.015 v 0 c -3.699,0.556 -10.164,1.365 -16.426,1.365 v 0 c -6.263,0 -12.728,-0.809 -16.428,-1.365" style="fill:url(#linearGradient138);stroke:none;stroke-width:.10081931" id="path140"/></g></g></g></g></g><g id="g142" transform="translate(-150)" style="stroke-width:.10081931"><g id="g144" clip-path="url(#clipPath148)" style="stroke-width:.10081931"><g id="g150" style="stroke-width:.10081931"><g id="g176" mask="url(#mask164)" style="stroke-width:.10081931"><g id="g178" style="stroke-width:.10081931"><path d="M 48.11,166.462 C 42.569,157.306 23.9,125.695 9.459,92.112 v 0 C 9.239,91.601 9.105,91.064 9.018,90.521 v 0 l 60.263,62.22 -19.093,15.863 c -0.833,-0.544 -1.547,-1.267 -2.078,-2.142" style="fill:url(#linearGradient184);stroke:none;stroke-width:.10081931" id="path186"/></g></g></g></g></g><g id="g188" transform="translate(-150)" style="stroke-width:.10081931"><g id="g190" clip-path="url(#clipPath194)" style="stroke-width:.10081931"><g id="g196" style="stroke-width:.10081931"><g id="g260" style="stroke-width:.10081931"><g id="g258" clip-path="url(#clipPath202)" style="opacity:.60000598;stroke-width:.10081931"><g id="g256" style="stroke-width:.10081931"><g id="g254" clip-path="url(#clipPath206)" style="stroke-width:.10081931"><g id="g252" style="stroke-width:.10081931"><g id="g250" mask="url(#mask222)" style="stroke-width:.10081931"><g id="g248" style="stroke-width:.10081931"><path d="M 34.978,71.72 69.281,152.741 9.018,90.521 C 8.886,89.693 8.889,88.845 9.07,88.015 10.606,80.953 16.035,57.35 24.971,32.741 c 0.206,-0.566 0.501,-1.088 0.845,-1.575 z" style="fill:url(#linearGradient242);stroke:none;stroke-width:.10081931" id="path246"/></g></g></g></g></g></g></g></g><g id="g262" style="stroke-width:.10081931"><g id="g318" style="stroke-width:.10081931"><g id="g316" clip-path="url(#clipPath268)" style="opacity:.30000299;stroke-width:.10081931"><g id="g314" style="stroke-width:.10081931"><g id="g312" clip-path="url(#clipPath272)" style="stroke-width:.10081931"><g id="g310" style="stroke-width:.10081931"><g id="g308" mask="url(#mask284)" style="stroke-width:.10081931"><g id="g306" style="stroke-width:.10081931"><path d="m 25.816,31.166 c 0.471,-0.664 1.046,-1.252 1.729,-1.713 C 32.674,25.987 48.038,16.05 66.672,8.18 67.503,7.828 68.392,7.656 69.281,7.657 V 26.94 L 34.978,71.72 Z" style="fill:url(#linearGradient300);stroke:none;stroke-width:.10081931" id="path304"/></g></g></g></g></g></g></g></g><g id="g320" style="stroke-width:.10081931"><g id="g380" style="stroke-width:.10081931"><g id="g378" clip-path="url(#clipPath326)" style="opacity:.39999402;stroke-width:.10081931"><g id="g376" style="stroke-width:.10081931"><g id="g374" clip-path="url(#clipPath330)" style="stroke-width:.10081931"><g id="g372" style="stroke-width:.10081931"><g id="g370" mask="url(#mask344)" style="stroke-width:.10081931"><g id="g368" style="stroke-width:.10081931"><path d="M 103.584,71.72 69.281,26.94 V 7.657 c 0.88,0.002 1.759,0.175 2.582,0.523 18.635,7.87 33.998,17.807 39.127,21.273 0.693,0.468 1.276,1.068 1.75,1.745 z" style="fill:url(#linearGradient362);stroke:none;stroke-width:.10081931" id="path366"/></g></g></g></g></g></g></g></g><g id="g382" style="stroke-width:.10081931"><g id="g442" style="stroke-width:.10081931"><g id="g440" clip-path="url(#clipPath388)" style="opacity:.39999402;stroke-width:.10081931"><g id="g438" style="stroke-width:.10081931"><g id="g436" clip-path="url(#clipPath392)" style="stroke-width:.10081931"><g id="g434" style="stroke-width:.10081931"><g id="g432" mask="url(#mask406)" style="stroke-width:.10081931"><g id="g430" style="stroke-width:.10081931"><path d="m 103.584,71.72 9.156,-40.522 c 0.335,0.477 0.623,0.989 0.824,1.543 8.936,24.609 14.365,48.212 15.901,55.274 0.183,0.841 0.185,1.699 0.047,2.537 l -60.231,62.189 z" style="fill:url(#linearGradient424);stroke:none;stroke-width:.10081931" id="path428"/></g></g></g></g></g></g></g></g></g></g></g></g></g></svg>