<svg xmlns="http://www.w3.org/2000/svg" xmlns:svg="http://www.w3.org/2000/svg" xmlns:xlink="http://www.w3.org/1999/xlink" id="svg2" width="3840" height="946" version="1.1" viewBox="0 0 3840 946" xml:space="preserve"><metadata id="metadata8"/><defs id="defs6"><clipPath id="clipPath20" clipPathUnits="userSpaceOnUse"><path id="path18" d="M 0,61.202 H 216 V 0 H 0 Z"/></clipPath><clipPath id="clipPath78" clipPathUnits="userSpaceOnUse"><path id="path76" d="m 31.032,32.744 c -0.661,-0.287 -0.971,0.417 -1.252,1.12 v 0 c -0.25,0.628 -0.476,1.255 -0.904,1.18 v 0 C 27.453,34.793 27.697,26.77 25.452,26.86 v 0 c -1.337,0.053 -0.642,2.62 -1.605,2.62 v 0 c -0.963,0 -1.816,-1.926 -1.816,-4.311 v 0 c 0,-5.703 4.645,-10.375 10.375,-10.375 v 0 c 5.731,0 10.375,4.683 10.375,10.375 v 0 c 0,3.135 -2.404,7.522 -3.528,7.522 v 0 c -1.123,0 -0.54,-4.645 -2.514,-4.334 v 0 C 34.707,28.678 34.707,40.34 33.315,40.34 v 0 c -1.39,0 -1.034,-7.053 -2.283,-7.596 m 6.682,4.134 c 0,-0.509 0.412,-0.922 0.921,-0.922 v 0 c 0.51,0 0.923,0.413 0.923,0.922 v 0 c 0,0.51 -0.413,0.922 -0.923,0.922 v 0 c -0.509,0 -0.921,-0.412 -0.921,-0.922"/></clipPath><linearGradient id="linearGradient88" x1="0" x2="1" y1="0" y2="0" gradientTransform="matrix(0,25.546612,25.546612,0,32.406155,14.793484)" gradientUnits="userSpaceOnUse" spreadMethod="pad"><stop style="stop-opacity:1;stop-color:#ff7c02" id="stop84" offset="0"/><stop style="stop-opacity:1;stop-color:#ff3d00" id="stop86" offset="1"/></linearGradient><clipPath id="clipPath98" clipPathUnits="userSpaceOnUse"><path id="path96" d="M 0,61.202 H 216 V 0 H 0 Z"/></clipPath><clipPath id="clipPath106" clipPathUnits="userSpaceOnUse"><path id="path104" d="M 22.8493,48.2171 H 41.9707 V 13.1546 H 22.8493 Z"/></clipPath><clipPath id="clipPath110" clipPathUnits="userSpaceOnUse"><path id="path108" d="M 32.41,48.217 22.85,25.636 32.41,13.154 41.971,25.636 Z"/></clipPath><clipPath id="clipPath114" clipPathUnits="userSpaceOnUse"><path id="path112" d="M -32768,32767 H 32767 V -32768 H -32768 Z"/></clipPath><linearGradient id="linearGradient122" x1="0" x2="1" y1="0" y2="0" gradientTransform="matrix(7.6274781,10.406655,10.406655,-7.6274781,23.545889,18.310434)" gradientUnits="userSpaceOnUse" spreadMethod="pad"><stop style="stop-opacity:1;stop-color:#fff" id="stop116" offset="0"/><stop style="stop-opacity:0;stop-color:#fff" id="stop118" offset=".572"/><stop style="stop-opacity:0;stop-color:#fff" id="stop120" offset="1"/></linearGradient><mask id="mask124" width="1" height="1" x="0" y="0" maskUnits="userSpaceOnUse"><g id="g134"><g id="g132" clip-path="url(#clipPath114)"><g id="g130"><g id="g128"><path d="M -32768,32767 H 32767 V -32768 H -32768 Z" style="fill:url(#linearGradient122);stroke:none" id="path126"/></g></g></g></g></mask><linearGradient id="linearGradient142" x1="0" x2="1" y1="0" y2="0" gradientTransform="matrix(7.6274781,10.406655,10.406655,-7.6274781,23.545889,18.310434)" gradientUnits="userSpaceOnUse" spreadMethod="pad"><stop style="stop-opacity:1;stop-color:#fff" id="stop136" offset="0"/><stop style="stop-opacity:1;stop-color:#fff" id="stop138" offset=".572"/><stop style="stop-opacity:1;stop-color:#fff" id="stop140" offset="1"/></linearGradient><clipPath id="clipPath168" clipPathUnits="userSpaceOnUse"><path id="path166" d="m 27.828,52.922 c -0.268,-0.04 -0.519,-0.14 -0.74,-0.284 v 0 l 5.322,-4.421 5.314,4.421 c -0.221,0.144 -0.471,0.244 -0.739,0.284 v 0 c -1.032,0.154 -2.834,0.38 -4.579,0.38 v 0 c -1.746,0 -3.547,-0.226 -4.578,-0.38"/></clipPath><clipPath id="clipPath176" clipPathUnits="userSpaceOnUse"><path id="path174" d="M -32768,32767 H 32767 V -32768 H -32768 Z"/></clipPath><linearGradient id="linearGradient182" x1="0" x2="1" y1="0" y2="0" gradientTransform="matrix(10.635728,0,0,-10.635728,27.088348,50.759457)" gradientUnits="userSpaceOnUse" spreadMethod="pad"><stop style="stop-opacity:0;stop-color:#fff" id="stop178" offset="0"/><stop style="stop-opacity:1;stop-color:#fff" id="stop180" offset="1"/></linearGradient><mask id="mask184" width="1" height="1" x="0" y="0" maskUnits="userSpaceOnUse"><g id="g194"><g id="g192" clip-path="url(#clipPath176)"><g id="g190"><g id="g188"><path d="M -32768,32767 H 32767 V -32768 H -32768 Z" style="fill:url(#linearGradient182);stroke:none" id="path186"/></g></g></g></g></mask><linearGradient id="linearGradient204" x1="0" x2="1" y1="0" y2="0" gradientTransform="matrix(10.635728,0,0,-10.635728,27.088348,50.759457)" gradientUnits="userSpaceOnUse" spreadMethod="pad"><stop style="stop-opacity:1;stop-color:#fff" id="stop200" offset="0"/><stop style="stop-opacity:1;stop-color:#fff" id="stop202" offset="1"/></linearGradient><clipPath id="clipPath214" clipPathUnits="userSpaceOnUse"><path id="path212" d="M 26.51,52.042 C 24.965,49.489 19.761,40.68 15.736,31.319 v 0 c -0.061,-0.142 -0.098,-0.292 -0.122,-0.443 v 0 L 32.41,48.217 27.088,52.638 C 26.856,52.487 26.657,52.286 26.51,52.042"/></clipPath><clipPath id="clipPath222" clipPathUnits="userSpaceOnUse"><path id="path220" d="M -32768,32767 H 32767 V -32768 H -32768 Z"/></clipPath><linearGradient id="linearGradient228" x1="0" x2="1" y1="0" y2="0" gradientTransform="matrix(12.380795,-0.2116375,-0.2116375,-12.380795,19.911426,41.78175)" gradientUnits="userSpaceOnUse" spreadMethod="pad"><stop style="stop-opacity:0;stop-color:#fff" id="stop224" offset="0"/><stop style="stop-opacity:1;stop-color:#fff" id="stop226" offset="1"/></linearGradient><mask id="mask230" width="1" height="1" x="0" y="0" maskUnits="userSpaceOnUse"><g id="g240"><g id="g238" clip-path="url(#clipPath222)"><g id="g236"><g id="g234"><path d="M -32768,32767 H 32767 V -32768 H -32768 Z" style="fill:url(#linearGradient228);stroke:none" id="path232"/></g></g></g></g></mask><linearGradient id="linearGradient250" x1="0" x2="1" y1="0" y2="0" gradientTransform="matrix(12.380795,-0.2116375,-0.2116375,-12.380795,19.911426,41.78175)" gradientUnits="userSpaceOnUse" spreadMethod="pad"><stop style="stop-opacity:1;stop-color:#fff" id="stop246" offset="0"/><stop style="stop-opacity:1;stop-color:#fff" id="stop248" offset="1"/></linearGradient><clipPath id="clipPath260" clipPathUnits="userSpaceOnUse"><path id="path258" d="M 0,61.202 H 216 V 0 H 0 Z"/></clipPath><clipPath id="clipPath268" clipPathUnits="userSpaceOnUse"><path id="path266" d="M 15.588,48.2172 H 32.41 V 14.3328 H 15.588 Z"/></clipPath><clipPath id="clipPath272" clipPathUnits="userSpaceOnUse"><path id="path270" d="M 22.85,25.636 32.41,48.217 15.614,30.876 c -0.037,-0.231 -0.036,-0.468 0.014,-0.699 0.429,-1.968 1.941,-8.546 4.432,-15.406 0.057,-0.157 0.14,-0.302 0.235,-0.438 z"/></clipPath><clipPath id="clipPath276" clipPathUnits="userSpaceOnUse"><path id="path274" d="M -32768,32767 H 32767 V -32768 H -32768 Z"/></clipPath><linearGradient id="linearGradient286" x1="0" x2="1" y1="0" y2="0" gradientTransform="matrix(9.6732435,-8.5648508,-8.5648508,-9.6732435,20.531137,36.42955)" gradientUnits="userSpaceOnUse" spreadMethod="pad"><stop style="stop-opacity:1;stop-color:#fff" id="stop278" offset="0"/><stop style="stop-opacity:1;stop-color:#fff" id="stop280" offset=".278"/><stop style="stop-opacity:0;stop-color:#fff" id="stop282" offset=".663"/><stop style="stop-opacity:0;stop-color:#fff" id="stop284" offset="1"/></linearGradient><mask id="mask288" width="1" height="1" x="0" y="0" maskUnits="userSpaceOnUse"><g id="g298"><g id="g296" clip-path="url(#clipPath276)"><g id="g294"><g id="g292"><path d="M -32768,32767 H 32767 V -32768 H -32768 Z" style="fill:url(#linearGradient286);stroke:none" id="path290"/></g></g></g></g></mask><linearGradient id="linearGradient308" x1="0" x2="1" y1="0" y2="0" gradientTransform="matrix(9.6732435,-8.5648508,-8.5648508,-9.6732435,20.531137,36.42955)" gradientUnits="userSpaceOnUse" spreadMethod="pad"><stop style="stop-opacity:1;stop-color:#fff" id="stop300" offset="0"/><stop style="stop-opacity:1;stop-color:#fff" id="stop302" offset=".278"/><stop style="stop-opacity:1;stop-color:#fff" id="stop304" offset=".663"/><stop style="stop-opacity:1;stop-color:#fff" id="stop306" offset="1"/></linearGradient><clipPath id="clipPath334" clipPathUnits="userSpaceOnUse"><path id="path332" d="M 20.2956,25.6357 H 32.41 V 7.78043 H 20.2956 Z"/></clipPath><clipPath id="clipPath338" clipPathUnits="userSpaceOnUse"><path id="path336" d="m 20.295,14.333 c 0.132,-0.186 0.292,-0.35 0.482,-0.478 1.43,-0.966 5.712,-3.736 10.906,-5.929 C 31.914,7.828 32.162,7.78 32.41,7.78 v 5.374 l -9.56,12.482 z"/></clipPath><clipPath id="clipPath342" clipPathUnits="userSpaceOnUse"><path id="path340" d="M -32768,32767 H 32767 V -32768 H -32768 Z"/></clipPath><linearGradient id="linearGradient348" x1="0" x2="1" y1="0" y2="0" gradientTransform="matrix(-4.5570254,-6.8885269,-6.8885269,4.5570254,30.658493,21.28652)" gradientUnits="userSpaceOnUse" spreadMethod="pad"><stop style="stop-opacity:1;stop-color:#fff" id="stop344" offset="0"/><stop style="stop-opacity:0;stop-color:#fff" id="stop346" offset="1"/></linearGradient><mask id="mask350" width="1" height="1" x="0" y="0" maskUnits="userSpaceOnUse"><g id="g360"><g id="g358" clip-path="url(#clipPath342)"><g id="g356"><g id="g354"><path d="M -32768,32767 H 32767 V -32768 H -32768 Z" style="fill:url(#linearGradient348);stroke:none" id="path352"/></g></g></g></g></mask><linearGradient id="linearGradient366" x1="0" x2="1" y1="0" y2="0" gradientTransform="matrix(-4.5570254,-6.8885269,-6.8885269,4.5570254,30.658493,21.28652)" gradientUnits="userSpaceOnUse" spreadMethod="pad"><stop style="stop-opacity:1;stop-color:#fff" id="stop362" offset="0"/><stop style="stop-opacity:1;stop-color:#fff" id="stop364" offset="1"/></linearGradient><clipPath id="clipPath392" clipPathUnits="userSpaceOnUse"><path id="path390" d="M 32.41,25.6357 H 44.5225 V 7.78043 H 32.41 Z"/></clipPath><clipPath id="clipPath396" clipPathUnits="userSpaceOnUse"><path id="path394" d="M 41.971,25.636 32.41,13.154 V 7.78 c 0.245,10e-4 0.49,0.049 0.719,0.146 5.194,2.193 9.476,4.963 10.906,5.929 0.193,0.13 0.355,0.297 0.487,0.487 z"/></clipPath><clipPath id="clipPath400" clipPathUnits="userSpaceOnUse"><path id="path398" d="M -32768,32767 H 32767 V -32768 H -32768 Z"/></clipPath><linearGradient id="linearGradient408" x1="0" x2="1" y1="0" y2="0" gradientTransform="matrix(7.2679615,-3.3825476,-3.3825476,-7.2679615,34.816929,17.81267)" gradientUnits="userSpaceOnUse" spreadMethod="pad"><stop style="stop-opacity:1;stop-color:#fff" id="stop402" offset="0"/><stop style="stop-opacity:0;stop-color:#fff" id="stop404" offset=".438"/><stop style="stop-opacity:0;stop-color:#fff" id="stop406" offset="1"/></linearGradient><mask id="mask410" width="1" height="1" x="0" y="0" maskUnits="userSpaceOnUse"><g id="g420"><g id="g418" clip-path="url(#clipPath400)"><g id="g416"><g id="g414"><path d="M -32768,32767 H 32767 V -32768 H -32768 Z" style="fill:url(#linearGradient408);stroke:none" id="path412"/></g></g></g></g></mask><linearGradient id="linearGradient428" x1="0" x2="1" y1="0" y2="0" gradientTransform="matrix(7.2679615,-3.3825476,-3.3825476,-7.2679615,34.816929,17.81267)" gradientUnits="userSpaceOnUse" spreadMethod="pad"><stop style="stop-opacity:1;stop-color:#fff" id="stop422" offset="0"/><stop style="stop-opacity:1;stop-color:#fff" id="stop424" offset=".438"/><stop style="stop-opacity:1;stop-color:#fff" id="stop426" offset="1"/></linearGradient><clipPath id="clipPath454" clipPathUnits="userSpaceOnUse"><path id="path452" d="M 32.41,48.2172 H 49.2244 V 14.3414 H 32.41 Z"/></clipPath><clipPath id="clipPath458" clipPathUnits="userSpaceOnUse"><path id="path456" d="m 41.971,25.636 2.551,-11.294 c 0.094,0.133 0.174,0.275 0.23,0.429 2.491,6.86 4.004,13.438 4.432,15.406 0.051,0.234 0.052,0.474 0.013,0.708 L 32.41,48.217 Z"/></clipPath><clipPath id="clipPath462" clipPathUnits="userSpaceOnUse"><path id="path460" d="M -32768,32767 H 32767 V -32768 H -32768 Z"/></clipPath><linearGradient id="linearGradient470" x1="0" x2="1" y1="0" y2="0" gradientTransform="matrix(7.100481,4.557025,4.557025,-7.100481,38.977646,31.607481)" gradientUnits="userSpaceOnUse" spreadMethod="pad"><stop style="stop-opacity:1;stop-color:#fff" id="stop464" offset="0"/><stop style="stop-opacity:0;stop-color:#fff" id="stop466" offset=".513"/><stop style="stop-opacity:0;stop-color:#fff" id="stop468" offset="1"/></linearGradient><mask id="mask472" width="1" height="1" x="0" y="0" maskUnits="userSpaceOnUse"><g id="g482"><g id="g480" clip-path="url(#clipPath462)"><g id="g478"><g id="g476"><path d="M -32768,32767 H 32767 V -32768 H -32768 Z" style="fill:url(#linearGradient470);stroke:none" id="path474"/></g></g></g></g></mask><linearGradient id="linearGradient490" x1="0" x2="1" y1="0" y2="0" gradientTransform="matrix(7.100481,4.557025,4.557025,-7.100481,38.977646,31.607481)" gradientUnits="userSpaceOnUse" spreadMethod="pad"><stop style="stop-opacity:1;stop-color:#fff" id="stop484" offset="0"/><stop style="stop-opacity:1;stop-color:#fff" id="stop486" offset=".513"/><stop style="stop-opacity:1;stop-color:#fff" id="stop488" offset="1"/></linearGradient><linearGradient id="linearGradient8173"><stop style="stop-color:#d8dadb;stop-opacity:1" id="stop8169" offset="0"/><stop style="stop-color:#d8dadb;stop-opacity:.07488987" id="stop8171" offset="1"/></linearGradient><linearGradient id="linearGradient8080"><stop id="stop8076" offset="0" style="stop-color:#d7d7d7;stop-opacity:1"/><stop id="stop8078" offset="1" style="stop-color:#f0f0f0;stop-opacity:1"/></linearGradient><linearGradient id="linearGradient8066"><stop style="stop-color:#f7f7f7;stop-opacity:1" id="stop8062" offset="0"/><stop style="stop-color:#e3e3e3;stop-opacity:1" id="stop8064" offset="1"/></linearGradient><linearGradient id="linearGradient8052"><stop style="stop-color:#fff;stop-opacity:1" id="stop8048" offset="0"/><stop style="stop-color:#ececec;stop-opacity:1" id="stop8050" offset="1"/></linearGradient><linearGradient id="linearGradient6247"><stop id="stop6243" offset="0" style="stop-color:#e2e2e2;stop-opacity:0"/><stop id="stop6245" offset="1" style="stop-color:#f6f6f6;stop-opacity:1"/></linearGradient><linearGradient id="linearGradient6241"><stop style="stop-color:#fff;stop-opacity:.57268721" id="stop6237" offset="0"/><stop style="stop-color:#e2e2e2;stop-opacity:.00881057" id="stop6239" offset="1"/></linearGradient><linearGradient id="linearGradient6235"><stop id="stop6231" offset="0" style="stop-color:#d3d3d3;stop-opacity:.01762114"/><stop id="stop6233" offset="1" style="stop-color:#fff;stop-opacity:1"/></linearGradient><linearGradient id="linearGradient7775"><stop style="stop-color:#ff4109;stop-opacity:1" id="stop7771" offset="0"/><stop style="stop-color:#fc8851;stop-opacity:1" id="stop7773" offset="1"/></linearGradient><linearGradient id="linearGradient8331" x1="150.102" x2="97.473" y1="344.301" y2="267.689" gradientTransform="matrix(0.26458333,0,0,0.26458333,-143.97755,109.31482)" gradientUnits="userSpaceOnUse" xlink:href="#linearGradient8080"/><linearGradient id="linearGradient8605"><stop style="stop-color:#d7d7d7;stop-opacity:1" id="stop8601" offset="0"/><stop style="stop-color:#e3e3e3;stop-opacity:1" id="stop8603" offset="1"/></linearGradient><linearGradient id="linearGradient8329" x1="162.096" x2="181.413" y1="530.502" y2="504.853" gradientTransform="matrix(0.26458333,0,0,0.26458333,-143.97755,109.31482)" gradientUnits="userSpaceOnUse" xlink:href="#linearGradient11361"/><linearGradient id="linearGradient11361"><stop style="stop-color:#e2e2e2;stop-opacity:1" id="stop11357" offset="0"/><stop style="stop-color:#ededed;stop-opacity:1" id="stop11359" offset="1"/></linearGradient><linearGradient id="linearGradient8327" x1="244.194" x2="282.464" y1="528.799" y2="543.788" gradientTransform="matrix(0.26458333,0,0,0.26458333,-143.97755,109.31482)" gradientUnits="userSpaceOnUse" xlink:href="#linearGradient8052"/><linearGradient id="linearGradient8409"><stop id="stop8405" offset="0" style="stop-color:#fff;stop-opacity:1"/><stop id="stop8407" offset="1" style="stop-color:#bfbfbf;stop-opacity:1"/></linearGradient><linearGradient id="linearGradient8325" x1="339.235" x2="396.369" y1="370.086" y2="339.28" gradientTransform="matrix(0.26458333,0,0,0.26458333,-143.97755,109.31482)" gradientUnits="userSpaceOnUse" xlink:href="#linearGradient8599"/><linearGradient id="linearGradient8599"><stop id="stop8595" offset="0" style="stop-color:#e9e9e9;stop-opacity:1"/><stop id="stop8597" offset="1" style="stop-color:#cecece;stop-opacity:1"/></linearGradient><linearGradient id="linearGradient8323" x1="202.682" x2="223.682" y1="477.024" y2="440.024" gradientTransform="matrix(0.26458333,0,0,0.26458333,-143.97755,109.31482)" gradientUnits="userSpaceOnUse" xlink:href="#linearGradient8350"/><linearGradient id="linearGradient8350"><stop id="stop8346" offset="0" style="stop-color:#fff;stop-opacity:1"/><stop id="stop8348" offset="1" style="stop-color:#e2e2e2;stop-opacity:1"/></linearGradient><linearGradient id="linearGradient8321" x1="188.926" x2="278.516" y1="62.392" y2="60.393" gradientTransform="matrix(0.26458333,0,0,0.26458333,-143.97755,109.31482)" gradientUnits="userSpaceOnUse" xlink:href="#linearGradient7381"/><linearGradient id="linearGradient7381"><stop id="stop7585" offset="0" style="stop-color:#d7d7d7;stop-opacity:1"/><stop id="stop7587" offset="1" style="stop-color:#fff;stop-opacity:1"/></linearGradient><linearGradient id="linearGradient8319" x1="455.217" x2="551.149" y1="186.413" y2="182.416" gradientTransform="matrix(0.26458333,0,0,0.26458333,-243.56619,103.6744)" gradientUnits="userSpaceOnUse" xlink:href="#linearGradient8611"/><linearGradient id="linearGradient8611"><stop id="stop8607" offset="0" style="stop-color:#ddd;stop-opacity:1"/><stop id="stop8609" offset="1" style="stop-color:#f3f3f3;stop-opacity:1"/></linearGradient><linearGradient id="linearGradient8317" x1="234.497" x2="237.014" y1="65.071" y2="563.153" gradientTransform="matrix(0.26458333,0,0,0.26458333,-143.97755,109.31482)" gradientUnits="userSpaceOnUse" xlink:href="#linearGradient11343"/><linearGradient id="linearGradient11343"><stop style="stop-color:#d3d3d3;stop-opacity:1" id="stop11339" offset="0"/><stop style="stop-color:#fff;stop-opacity:1" id="stop11341" offset="1"/></linearGradient><clipPath id="clipPath11425-3" clipPathUnits="userSpaceOnUse"><path style="display:inline;opacity:1;fill:url(#linearGradient11429);fill-opacity:1;stroke:#e5e5e5;stroke-width:.93019897;stroke-opacity:.4517544;filter:url(#filter8417-3)" id="path11427-6" d="m 1794.2417,641.50529 c -11.214,0.38608 -7.9754,77.57575 -28.2951,96.44532 -15.7255,13.36405 -16.0858,-31.62092 -30.117,-28.14258 -14.0316,3.47834 -10.9422,20.73429 -14.2148,36.25781 -3.2725,15.52351 -7.9672,38.138 -13.461,55.63672 -5.494,17.49872 -28.6982,13.47906 -27.9179,-2.03906 0.7801,-15.51812 -9.2825,-25.85113 -19.0235,-12.4043 -9.7411,13.44683 -12.949,28.5136 -13.3418,47.88086 -0.3928,19.36726 7.9091,48.12479 15.4219,64.03125 7.5129,15.90646 11.8945,20.3041 20.1484,29.92578 8.254,9.62168 17.8169,17.5099 28.2481,23.40039 10.4312,5.89049 19.9163,10.80445 32.0586,14.02148 12.1422,3.21703 26.2969,3.90822 38.0234,3.88672 11.7265,-0.0215 21.5611,-1.31763 31.7031,-3.75586 10.142,-2.43823 14.2923,-3.11238 31.5821,-12.10937 17.2897,-8.99699 48.1093,-40.29166 57.2383,-59.18164 9.129,-18.88998 10.544,-28.44755 12.4492,-40.42578 1.9053,-11.97823 2.5468,-18.22857 0.9433,-32.94922 -1.6034,-14.72065 -4.6252,-25.32562 -10.7597,-39.05274 -6.1344,-13.72712 -12.8225,-29.84439 -28.4864,-40.19531 -15.6639,-10.35092 -17.4674,21.92421 -20.0058,33.32813 -2.5385,11.40392 -15.2681,27.98103 -25.2422,15.33789 -9.974,-12.64314 -9.6772,-24.13999 -14.043,-43.37305 -4.3657,-19.23307 -4.8326,-55.34958 -8.6582,-72.79297 -3.8256,-17.44339 -4.8002,-34.0408 -14.25,-33.73047 z m 69.5,37.17774 c -5.4476,-0.12642 -11.1452,3.9543 -10.883,11.25976 0.494,13.75146 20.7716,15.21934 20.4512,-0.42773 -0.1502,-7.33456 -4.7616,-10.72048 -9.5682,-10.83203 z"/></clipPath><filter style="color-interpolation-filters:sRGB" id="filter8417-3"><feBlend id="feBlend8419-5" in2="BackgroundImage" mode="multiply"/></filter><linearGradient id="linearGradient7623-0"><stop id="stop7619" offset="0" style="stop-color:#b2b2b2;stop-opacity:1"/><stop id="stop7621" offset="1" style="stop-color:#fff;stop-opacity:1"/></linearGradient><linearGradient id="linearGradient6209" x1="233.083" x2="237.014" y1="371.955" y2="563.153" gradientTransform="matrix(0.26458333,0,0,0.26458333,47.183908,43.565864)" gradientUnits="userSpaceOnUse" xlink:href="#linearGradient6235"/><linearGradient id="linearGradient6215" x1="202.682" x2="228.278" y1="477.024" y2="435.781" gradientTransform="matrix(0.26458333,0,0,0.26458333,47.183908,43.565864)" gradientUnits="userSpaceOnUse" xlink:href="#linearGradient6241"/><linearGradient id="linearGradient6217" x1="339.235" x2="396.369" y1="370.086" y2="339.28" gradientTransform="matrix(0.26458333,0,0,0.26458333,47.183908,43.565864)" gradientUnits="userSpaceOnUse" xlink:href="#linearGradient8599"/><linearGradient id="linearGradient6219" x1="244.194" x2="282.464" y1="528.799" y2="543.788" gradientTransform="matrix(0.26458333,0,0,0.26458333,47.183908,43.565864)" gradientUnits="userSpaceOnUse" xlink:href="#linearGradient8409"/><linearGradient id="linearGradient6221" x1="162.096" x2="187.413" y1="530.502" y2="491.853" gradientTransform="matrix(0.26458333,0,0,0.26458333,47.183908,43.565864)" gradientUnits="userSpaceOnUse" xlink:href="#linearGradient6247"/><linearGradient id="linearGradient6223" x1="51.77" x2="108.984" y1="126.198" y2="126.198" gradientTransform="matrix(0.26458333,0,0,0.26458333,47.183908,43.565864)" gradientUnits="userSpaceOnUse" xlink:href="#linearGradient8605"/><linearGradient id="linearGradient6229" x1="246.404" x2="236.271" y1="202.025" y2="495.971" gradientTransform="matrix(0.07772487,0,0,-0.07772487,14.276421,54.490577)" gradientUnits="userSpaceOnUse" xlink:href="#linearGradient7775"/><linearGradient id="linearGradient8175" x1="130.892" x2="143.719" y1="101.258" y2="93.832" gradientUnits="userSpaceOnUse" xlink:href="#linearGradient8173"/></defs><g id="g10" transform="matrix(1.3333333,0,0,-1.3333333,-104.13761,958.17653)"><g id="g4501" transform="matrix(15.579218,0,0,15.579218,-164.69636,-112.07006)" style="stroke-width:.06418806"><g id="g4467" style="stroke-width:.06418806"><path id="path28" style="fill:#665d51;fill-opacity:1;fill-rule:nonzero;stroke:none;stroke-width:.06418806" d="m 70.166,31.7802 v -2.803 H 63.38 v -9.736 h -2.95 v 20.653 h 11.802 v -2.802 H 63.38 v -5.312 z"/><path d="m 74.446,33.108 h 2.803 V 19.241 h -2.803 z m 1.387,6.787 c 1.033,0 1.859,-0.827 1.859,-1.859 0,-1.033 -0.826,-1.83 -1.859,-1.83 -1.033,0 -1.83,0.797 -1.83,1.83 0,1.032 0.797,1.859 1.83,1.859" style="fill:#665d51;fill-opacity:1;fill-rule:nonzero;stroke:none;stroke-width:.06418806" id="path30"/><path id="path34" style="fill:#665d51;fill-opacity:1;fill-rule:nonzero;stroke:none;stroke-width:.06418806" d="m 89.0224,30.6299 c -0.325,0.089 -0.649,0.118 -1.091,0.118 -1.446,0 -2.98,-1.003 -3.748,-2.331 v -9.176 h -2.803 v 13.868 h 2.715 v -1.594 c 0.678,0.944 2.124,1.888 4.16,1.888 0.295,0 0.767,-0.029 1.092,-0.087 z"/><path id="path38" style="fill:#665d51;fill-opacity:1;fill-rule:nonzero;stroke:none;stroke-width:.06418806" d="m 93.0361,27.9443 h 7.553 c -0.413,1.771 -2.006,3.01 -3.658,3.01 -1.8,0 -3.423,-1.209 -3.895,-3.01 m -0.236,-2.359 c 0.148,-2.331 2.065,-4.191 4.485,-4.191 2.065,0 3.186,1.004 3.983,1.889 l 1.829,-1.74 c -1.032,-1.328 -3.009,-2.597 -5.842,-2.597 -4.042,0 -7.17,3.068 -7.17,7.228 0,4.161 2.833,7.229 6.757,7.229 3.865,0 6.668,-3.128 6.668,-7.229 0,-0.118 0,-0.324 -0.029,-0.589 z"/><path id="path42" style="fill:#665d51;fill-opacity:1;fill-rule:nonzero;stroke:none;stroke-width:.06418806" d="m 118.8544,22.1914 c -1.15,-1.918 -3.629,-3.245 -6.166,-3.245 -4.278,0 -7.406,3.127 -7.406,7.228 0,4.101 3.069,7.229 7.229,7.229 2.419,0 4.602,-1.21 5.901,-3.01 l -2.066,-1.74 c -0.766,1.061 -2.065,2.095 -3.835,2.095 -2.508,0 -4.426,-1.948 -4.426,-4.574 0,-2.713 1.947,-4.573 4.603,-4.573 1.829,0 3.127,0.974 4.012,2.154 z"/><path id="path46" style="fill:#665d51;fill-opacity:1;fill-rule:nonzero;stroke:none;stroke-width:.06418806" d="m 128.8588,30.6299 c -0.325,0.089 -0.649,0.118 -1.091,0.118 -1.447,0 -2.981,-1.003 -3.748,-2.331 v -9.176 h -2.803 v 13.868 h 2.715 v -1.594 c 0.678,0.944 2.124,1.888 4.16,1.888 0.295,0 0.767,-0.029 1.092,-0.087 z"/><path id="path50" style="fill:#665d51;fill-opacity:1;fill-rule:nonzero;stroke:none;stroke-width:.06418806" d="m 141.1342,28.7705 c -0.855,1.122 -2.271,1.978 -3.953,1.978 -2.686,0 -4.456,-2.154 -4.456,-4.574 0,-2.478 1.918,-4.573 4.603,-4.573 1.416,0 2.862,0.708 3.806,1.977 z m 0.089,-8.261 c -1.122,-1.003 -2.626,-1.563 -4.278,-1.563 -1.24,0 -2.538,0.354 -3.482,0.914 -2.095,1.239 -3.541,3.541 -3.541,6.314 0,2.774 1.476,5.105 3.57,6.344 0.945,0.56 2.095,0.885 3.393,0.885 1.564,0 3.069,-0.473 4.338,-1.564 v 1.269 h 2.714 v -13.867 h -2.714 z"/><path id="path54" style="fill:#665d51;fill-opacity:1;fill-rule:nonzero;stroke:none;stroke-width:.06418806" d="m 160.4623,22.1914 c -1.151,-1.918 -3.629,-3.245 -6.167,-3.245 -4.278,0 -7.405,3.127 -7.405,7.228 0,4.101 3.069,7.229 7.228,7.229 2.42,0 4.603,-1.21 5.902,-3.01 l -2.066,-1.74 c -0.767,1.061 -2.065,2.095 -3.836,2.095 -2.508,0 -4.425,-1.948 -4.425,-4.574 0,-2.713 1.947,-4.573 4.602,-4.573 1.83,0 3.128,0.974 4.013,2.154 z"/><path id="path58" style="fill:#665d51;fill-opacity:1;fill-rule:nonzero;stroke:none;stroke-width:.06418806" d="m 176.249,19.2412 h -3.747 l -6.875,6.786 v -6.786 h -2.802 v 20.948 h 2.802 v -12.391 l 5.783,5.31 h 3.954 l -6.933,-6.255 z"/><path id="path62" style="fill:#665d51;fill-opacity:1;fill-rule:nonzero;stroke:none;stroke-width:.06418806" d="m 179.0536,27.9443 h 7.553 c -0.413,1.771 -2.006,3.01 -3.658,3.01 -1.8,0 -3.423,-1.209 -3.895,-3.01 m -0.236,-2.359 c 0.148,-2.331 2.065,-4.191 4.485,-4.191 2.065,0 3.186,1.004 3.983,1.889 l 1.829,-1.74 c -1.033,-1.328 -3.009,-2.597 -5.842,-2.597 -4.042,0 -7.17,3.068 -7.17,7.228 0,4.161 2.833,7.229 6.757,7.229 3.865,0 6.668,-3.128 6.668,-7.229 0,-0.118 0,-0.324 -0.029,-0.589 z"/><path id="path66" style="fill:#665d51;fill-opacity:1;fill-rule:nonzero;stroke:none;stroke-width:.06418806" d="m 200.1215,30.6299 c -0.324,0.089 -0.649,0.118 -1.091,0.118 -1.446,0 -2.98,-1.003 -3.747,-2.331 v -9.176 h -2.803 v 13.868 h 2.714 v -1.594 c 0.679,0.944 2.124,1.888 4.16,1.888 0.295,0 0.767,-0.029 1.092,-0.087 z"/></g><g id="g4454" style="stroke-width:.06418806"><g style="stroke:none;stroke-width:.61937773" id="g8152" transform="matrix(0.29376331,0,0,-0.29376331,56.489328,87.580091)"><path style="display:inline;opacity:1;fill:url(#linearGradient8317);fill-opacity:1;fill-rule:evenodd;stroke:none;stroke-width:.163877px;stroke-linecap:butt;stroke-linejoin:miter;stroke-opacity:.4517544" id="path7567-1" d="m -82.29974,134.20925 -32.09076,77.13811 32.5128,41.9426 32.45067,-42.18765 z"/><path style="display:inline;opacity:1;fill:url(#linearGradient8319);fill-opacity:1;fill-rule:evenodd;stroke:none;stroke-width:.163877px;stroke-linecap:butt;stroke-linejoin:miter;stroke-opacity:.4517544" id="path6995-5" d="m -139.24302,192.56089 56.94328,-58.35164 c 0,0 -17.577992,-15.64567 -17.577992,-15.64567 0,0 -15.842478,25.44328 -20.425328,34.96148 -4.58282,9.5182 -18.93996,39.03582 -18.93996,39.03583 z"/><path style="display:inline;opacity:1;fill:#d8dadb;fill-opacity:1;fill-rule:evenodd;stroke:none;stroke-width:.163877px;stroke-linecap:butt;stroke-linejoin:miter;stroke-opacity:.4517544" id="path6995-9-9" d="m -25.35646,192.56088 -4.5992,21.84332 c -0.88132,-0.17627 -52.34408,-80.19495 -52.34408,-80.19495 l 17.57802,-15.64567 c 0,0 15.84245,25.44328 20.4253,34.96148 4.58282,9.5182 18.93996,39.03582 18.93996,39.03582 z"/><path style="display:inline;opacity:1;fill:url(#linearGradient8321);fill-opacity:1;fill-rule:evenodd;stroke:none;stroke-width:.163877px;stroke-linecap:butt;stroke-linejoin:miter;stroke-opacity:.4517544" id="path7557-7" d="m -99.877732,118.56358 17.577992,15.64567 17.57802,-15.64567 c 0,0 -4.99383,-1.8775 -15.74588,-1.8775 -10.752042,0 -19.410132,1.8775 -19.410132,1.8775 z"/><path style="display:inline;opacity:1;fill:url(#linearGradient8323);fill-opacity:1;fill-rule:evenodd;stroke:none;stroke-width:.163877px;stroke-linecap:butt;stroke-linejoin:miter;stroke-opacity:.4517544" id="path7779-7" d="m -114.3905,211.34736 32.5128,41.9426 14.07583,-18.15668 -44.42084,-28.80408 z"/><path style="display:inline;opacity:1;fill:url(#linearGradient8325);fill-opacity:1;fill-rule:evenodd;stroke:none;stroke-width:.163877px;stroke-linecap:butt;stroke-linejoin:miter;stroke-opacity:.4517544" id="path7796-6" d="m -82.29974,134.20925 32.87271,76.89306 8.8632,38.39443 10.60817,-35.09254 z"/><path style="display:inline;opacity:1;fill:url(#linearGradient8327);fill-opacity:1;fill-rule:evenodd;stroke:none;stroke-width:.163877px;stroke-linecap:butt;stroke-linejoin:miter;stroke-opacity:.4517544" id="path7798-7" d="m -49.42703,211.10231 -32.45067,42.18765 0.74043,18.35844 c 0,0 3.12542,-0.20668 8.33115,-3.20149 5.20573,-2.9948 28.9329,-14.8891 30.58761,-16.91958 l 1.65468,-2.03049 z"/><path style="display:inline;opacity:1;fill:url(#linearGradient8329);fill-opacity:1;fill-rule:evenodd;stroke:none;stroke-width:.163877px;stroke-linecap:butt;stroke-linejoin:miter;stroke-opacity:.4517544" id="path7798-4-3" d="m -114.3905,211.34736 32.45067,42.18766 0.80256,18.11338 c 0,0 -4.66841,0.0384 -9.87414,-2.95642 -5.205732,-2.99481 -28.93293,-14.88911 -30.58761,-16.91959 l -1.6547,-2.03049 z"/><path style="display:inline;opacity:1;fill:url(#linearGradient8331);fill-opacity:1;fill-rule:evenodd;stroke:none;stroke-width:.163877px;stroke-linecap:butt;stroke-linejoin:miter;stroke-opacity:.4517544" id="path7796-8-6" d="m -82.29974,134.20925 -32.09076,77.13811 -8.86319,38.39444 -15.98933,-57.18091 z"/></g><path id="path6227" d="m 33.38237,41.098451 c -0.871608,-0.03001 -0.619888,-6.029562 -2.199218,-7.496199 -1.222264,-1.038718 -1.25026,2.457733 -2.340856,2.187379 -1.090597,-0.270353 -0.850484,-1.611571 -1.104845,-2.818133 -0.254354,-1.206562 -0.619241,-2.964271 -1.046255,-4.324357 -0.42702,-1.360086 -2.230547,-1.047657 -2.169915,0.158485 0.06063,1.206145 -0.72148,2.009276 -1.478599,0.964122 -0.757125,-1.045151 -1.006459,-2.216215 -1.036989,-3.721531 -0.03053,-1.50532 0.614734,-3.740494 1.198665,-4.976824 0.583939,-1.236326 0.924499,-1.578131 1.566031,-2.325976 0.641541,-0.747846 1.384818,-1.360956 2.195582,-1.818792 0.810763,-0.457839 1.547991,-0.839775 2.491749,-1.089818 0.943751,-0.250045 2.043924,-0.303766 2.955366,-0.302094 0.911439,0.0018 1.675832,0.102412 2.464119,0.291921 0.788284,0.189513 1.110866,0.241911 2.454716,0.9412 1.343837,0.699289 3.739289,3.131664 4.448839,4.599887 0.70955,1.46822 0.819529,2.21108 0.967613,3.14209 0.148089,0.931006 0.197949,1.416811 0.07332,2.560972 -0.124623,1.144161 -0.359493,1.968432 -0.836297,3.035368 -0.476796,1.06694 -0.996627,2.319652 -2.214103,3.124176 -1.217473,0.804524 -1.357651,-1.704056 -1.554948,-2.590422 -0.197303,-0.886369 -1.18671,-2.174824 -1.961945,-1.192139 -0.77523,0.982688 -0.752161,1.876278 -1.091493,3.371166 -0.339323,1.494888 -0.375611,4.302041 -0.672955,5.657826 -0.297345,1.355783 -0.373095,2.645813 -1.107579,2.621693 z m 5.401878,-2.578733 c -0.423416,0.0098 -0.866261,-0.618246 -0.845865,-1.186064 0.0384,-1.068828 1.964219,-1.144058 1.939332,0.07211 -0.01166,0.57008 -0.719859,1.105285 -1.093467,1.113957 z" style="display:inline;opacity:1;fill:url(#linearGradient6229);fill-opacity:1;stroke:none;stroke-width:.04478077;stroke-opacity:.4517544"/><g style="stroke:none;stroke-width:.61937773" id="g8167" transform="matrix(0.29376331,0,0,-0.29376331,0.33310438,68.265459)"><path style="display:inline;opacity:.46500017;fill:url(#linearGradient6209);fill-opacity:1;fill-rule:evenodd;stroke:none;stroke-width:.163877px;stroke-linecap:butt;stroke-linejoin:miter;stroke-opacity:.4517544" id="path7567-1-3" d="M 108.86172,68.460294 76.770958,145.5984 109.28376,187.541 141.73443,145.35335 Z"/><path style="display:inline;opacity:.46500017;fill:url(#linearGradient6215);fill-opacity:1;fill-rule:evenodd;stroke:none;stroke-width:.163877px;stroke-linecap:butt;stroke-linejoin:miter;stroke-opacity:.4517544" id="path7779-7-3" d="m 76.770958,145.5984 32.450672,42.18766 14.13796,-18.40174 -44.420842,-28.80408 z"/><path style="display:inline;opacity:.46500017;fill:url(#linearGradient6217);fill-opacity:1;fill-rule:evenodd;stroke:none;stroke-width:.163877px;stroke-linecap:butt;stroke-linejoin:miter;stroke-opacity:.4517544" id="path7796-6-2" d="m 108.86172,68.460294 32.87271,76.893056 8.8632,38.39443 10.60817,-35.09254 z"/><path style="display:inline;opacity:.46500017;fill:url(#linearGradient6219);fill-opacity:1;fill-rule:evenodd;stroke:none;stroke-width:.163877px;stroke-linecap:butt;stroke-linejoin:miter;stroke-opacity:.4517544" id="path7798-7-0" d="m 141.73443,145.35335 -32.45067,42.18765 0.74043,18.35844 c 0,0 3.12542,-0.20668 8.33115,-3.20149 5.20573,-2.9948 28.9329,-14.8891 30.58761,-16.91958 l 1.65468,-2.03049 z"/><path style="display:inline;opacity:.46500017;fill:url(#linearGradient6221);fill-opacity:1;fill-rule:evenodd;stroke:none;stroke-width:.163877px;stroke-linecap:butt;stroke-linejoin:miter;stroke-opacity:.4517544" id="path7798-4-3-6" d="m 76.770958,145.5984 32.450672,42.18766 0.80256,18.11338 c 0,0 -4.66841,0.0384 -9.87414,-2.95642 -5.205732,-2.99481 -28.932932,-14.88911 -30.587612,-16.91959 l -1.6547,-2.03049 z"/><path style="display:inline;opacity:.46500017;fill:url(#linearGradient6223);fill-opacity:1;fill-rule:evenodd;stroke:none;stroke-width:.163877px;stroke-linecap:butt;stroke-linejoin:miter;stroke-opacity:.4517544" id="path7796-8-6-1" d="M 108.86172,68.460294 76.770958,145.5984 67.907768,183.99284 51.918438,126.81193 Z"/><path style="display:inline;opacity:.5;fill:url(#linearGradient8175);fill-opacity:1;fill-rule:evenodd;stroke:none;stroke-width:.163877px;stroke-linecap:butt;stroke-linejoin:miter;stroke-opacity:.4517544" id="path6995-9-9-4" d="m 165.805,126.81191 -4.5992,21.84332 c -0.88132,-0.17627 -52.34408,-80.194936 -52.34408,-80.194936 l 17.57802,-15.64567 c 0,0 15.84245,25.44328 20.4253,34.96148 4.58282,9.5182 18.93996,39.035806 18.93996,39.035806 z"/></g></g></g></g></svg>