<svg xmlns="http://www.w3.org/2000/svg" xmlns:svg="http://www.w3.org/2000/svg" xmlns:xlink="http://www.w3.org/1999/xlink" id="svg2" width="1648" height="2160" version="1.1" viewBox="0 0 1648 2160" xml:space="preserve"><metadata id="metadata8"/><defs id="defs6"><clipPath id="clipPath20" clipPathUnits="userSpaceOnUse"><path id="path18" d="M 0,180 H 137.274 V 0 H 0 Z"/></clipPath><clipPath id="clipPath36" clipPathUnits="userSpaceOnUse"><path id="path34" d="m 63.658,97.904 c -2.37,-1.031 -3.485,1.495 -4.491,4.019 v 0 c -0.897,2.253 -1.708,4.505 -3.246,4.234 v 0 C 50.817,105.256 51.693,76.468 43.637,76.791 v 0 c -4.799,0.191 -2.304,9.405 -5.759,9.405 v 0 c -3.455,0 -6.515,-6.91 -6.515,-15.471 v 0 c 0,-20.461 16.666,-37.226 37.225,-37.226 v 0 c 20.559,0 37.225,16.804 37.225,37.226 v 0 c 0,11.248 -8.626,26.986 -12.658,26.986 v 0 c -4.03,0 -1.942,-16.664 -9.02,-15.546 v 0 c -7.294,1.152 -7.294,42.994 -12.284,42.994 v 0 c -4.991,0 -3.711,-25.308 -8.193,-27.255 m 23.971,14.833 c 0,-1.827 1.481,-3.309 3.309,-3.309 v 0 c 1.827,0 3.308,1.482 3.308,3.309 v 0 c 0,1.827 -1.481,3.308 -3.308,3.308 v 0 c -1.828,0 -3.309,-1.481 -3.309,-3.308"/></clipPath><linearGradient id="linearGradient46" x1="0" x2="1" y1="0" y2="0" gradientTransform="matrix(0,91.658539,91.658539,0,68.587959,33.499741)" gradientUnits="userSpaceOnUse" spreadMethod="pad"><stop style="stop-opacity:1;stop-color:#ff7c02" id="stop42" offset="0"/><stop style="stop-opacity:1;stop-color:#ff3d00" id="stop44" offset="1"/></linearGradient><clipPath id="clipPath56" clipPathUnits="userSpaceOnUse"><path id="path54" d="M 0,180 H 137.274 V 0 H 0 Z"/></clipPath><clipPath id="clipPath64" clipPathUnits="userSpaceOnUse"><path id="path62" d="M 34.2991,153.42 H 102.904 V 27.6196 H 34.2991 Z"/></clipPath><clipPath id="clipPath68" clipPathUnits="userSpaceOnUse"><path id="path66" d="M 68.602,153.42 34.299,72.401 68.602,27.619 102.904,72.401 Z"/></clipPath><clipPath id="clipPath72" clipPathUnits="userSpaceOnUse"><path id="path70" d="M -32768,32767 H 32767 V -32768 H -32768 Z"/></clipPath><linearGradient id="linearGradient80" x1="0" x2="1" y1="0" y2="0" gradientTransform="matrix(27.366587,37.337978,37.337978,-27.366587,36.79826,46.118187)" gradientUnits="userSpaceOnUse" spreadMethod="pad"><stop style="stop-opacity:1;stop-color:#fff" id="stop74" offset="0"/><stop style="stop-opacity:0;stop-color:#fff" id="stop76" offset=".572"/><stop style="stop-opacity:0;stop-color:#fff" id="stop78" offset="1"/></linearGradient><mask id="mask82" width="1" height="1" x="0" y="0" maskUnits="userSpaceOnUse"><g id="g92"><g id="g90" clip-path="url(#clipPath72)"><g id="g88"><g id="g86"><path d="M -32768,32767 H 32767 V -32768 H -32768 Z" style="fill:url(#linearGradient80);stroke:none" id="path84"/></g></g></g></g></mask><linearGradient id="linearGradient100" x1="0" x2="1" y1="0" y2="0" gradientTransform="matrix(27.366587,37.337978,37.337978,-27.366587,36.79826,46.118187)" gradientUnits="userSpaceOnUse" spreadMethod="pad"><stop style="stop-opacity:1;stop-color:#fff" id="stop94" offset="0"/><stop style="stop-opacity:1;stop-color:#fff" id="stop96" offset=".572"/><stop style="stop-opacity:1;stop-color:#fff" id="stop98" offset="1"/></linearGradient><clipPath id="clipPath126" clipPathUnits="userSpaceOnUse"><path id="path124" d="m 52.16,170.3 c -0.962,-0.144 -1.86,-0.499 -2.652,-1.016 v 0 l 19.094,-15.864 19.066,15.864 c -0.792,0.517 -1.69,0.872 -2.653,1.016 v 0 c -3.699,0.555 -10.165,1.363 -16.427,1.363 v 0 c -6.263,0 -12.728,-0.808 -16.428,-1.363"/></clipPath><clipPath id="clipPath134" clipPathUnits="userSpaceOnUse"><path id="path132" d="M -32768,32767 H 32767 V -32768 H -32768 Z"/></clipPath><linearGradient id="linearGradient140" x1="0" x2="1" y1="0" y2="0" gradientTransform="matrix(38.15987,0,0,-38.15987,49.508232,162.54185)" gradientUnits="userSpaceOnUse" spreadMethod="pad"><stop style="stop-opacity:0;stop-color:#fff" id="stop136" offset="0"/><stop style="stop-opacity:1;stop-color:#fff" id="stop138" offset="1"/></linearGradient><mask id="mask142" width="1" height="1" x="0" y="0" maskUnits="userSpaceOnUse"><g id="g152"><g id="g150" clip-path="url(#clipPath134)"><g id="g148"><g id="g146"><path d="M -32768,32767 H 32767 V -32768 H -32768 Z" style="fill:url(#linearGradient140);stroke:none" id="path144"/></g></g></g></g></mask><linearGradient id="linearGradient162" x1="0" x2="1" y1="0" y2="0" gradientTransform="matrix(38.15987,0,0,-38.15987,49.508232,162.54185)" gradientUnits="userSpaceOnUse" spreadMethod="pad"><stop style="stop-opacity:1;stop-color:#fff" id="stop158" offset="0"/><stop style="stop-opacity:1;stop-color:#fff" id="stop160" offset="1"/></linearGradient><clipPath id="clipPath172" clipPathUnits="userSpaceOnUse"><path id="path170" d="M 47.431,167.143 C 41.889,157.986 23.221,126.375 8.779,92.792 v 0 C 8.56,92.281 8.425,91.744 8.339,91.202 v 0 l 60.263,62.218 -19.094,15.864 c -0.832,-0.544 -1.547,-1.268 -2.077,-2.141"/></clipPath><clipPath id="clipPath180" clipPathUnits="userSpaceOnUse"><path id="path178" d="M -32768,32767 H 32767 V -32768 H -32768 Z"/></clipPath><linearGradient id="linearGradient186" x1="0" x2="1" y1="0" y2="0" gradientTransform="matrix(44.420986,-0.7593331,-0.7593331,-44.420986,23.758194,130.33078)" gradientUnits="userSpaceOnUse" spreadMethod="pad"><stop style="stop-opacity:0;stop-color:#fff" id="stop182" offset="0"/><stop style="stop-opacity:1;stop-color:#fff" id="stop184" offset="1"/></linearGradient><mask id="mask188" width="1" height="1" x="0" y="0" maskUnits="userSpaceOnUse"><g id="g198"><g id="g196" clip-path="url(#clipPath180)"><g id="g194"><g id="g192"><path d="M -32768,32767 H 32767 V -32768 H -32768 Z" style="fill:url(#linearGradient186);stroke:none" id="path190"/></g></g></g></g></mask><linearGradient id="linearGradient208" x1="0" x2="1" y1="0" y2="0" gradientTransform="matrix(44.420986,-0.7593331,-0.7593331,-44.420986,23.758194,130.33078)" gradientUnits="userSpaceOnUse" spreadMethod="pad"><stop style="stop-opacity:1;stop-color:#fff" id="stop204" offset="0"/><stop style="stop-opacity:1;stop-color:#fff" id="stop206" offset="1"/></linearGradient><clipPath id="clipPath218" clipPathUnits="userSpaceOnUse"><path id="path216" d="M 0,180 H 137.274 V 0 H 0 Z"/></clipPath><clipPath id="clipPath226" clipPathUnits="userSpaceOnUse"><path id="path224" d="M 8.24603,153.42 H 68.6018 V 31.8467 H 8.24603 Z"/></clipPath><clipPath id="clipPath230" clipPathUnits="userSpaceOnUse"><path id="path228" d="M 34.299,72.401 68.602,153.42 8.338,91.201 C 8.206,90.373 8.21,89.526 8.391,88.695 c 1.536,-7.061 6.964,-30.665 15.9,-55.274 0.206,-0.566 0.501,-1.088 0.846,-1.574 z"/></clipPath><clipPath id="clipPath234" clipPathUnits="userSpaceOnUse"><path id="path232" d="M -32768,32767 H 32767 V -32768 H -32768 Z"/></clipPath><linearGradient id="linearGradient244" x1="0" x2="1" y1="0" y2="0" gradientTransform="matrix(34.706574,-30.729778,-30.729778,-34.706574,25.981651,111.12766)" gradientUnits="userSpaceOnUse" spreadMethod="pad"><stop style="stop-opacity:1;stop-color:#fff" id="stop236" offset="0"/><stop style="stop-opacity:1;stop-color:#fff" id="stop238" offset=".278"/><stop style="stop-opacity:0;stop-color:#fff" id="stop240" offset=".663"/><stop style="stop-opacity:0;stop-color:#fff" id="stop242" offset="1"/></linearGradient><mask id="mask246" width="1" height="1" x="0" y="0" maskUnits="userSpaceOnUse"><g id="g256"><g id="g254" clip-path="url(#clipPath234)"><g id="g252"><g id="g250"><path d="M -32768,32767 H 32767 V -32768 H -32768 Z" style="fill:url(#linearGradient244);stroke:none" id="path248"/></g></g></g></g></mask><linearGradient id="linearGradient266" x1="0" x2="1" y1="0" y2="0" gradientTransform="matrix(34.706574,-30.729778,-30.729778,-34.706574,25.981651,111.12766)" gradientUnits="userSpaceOnUse" spreadMethod="pad"><stop style="stop-opacity:1;stop-color:#fff" id="stop258" offset="0"/><stop style="stop-opacity:1;stop-color:#fff" id="stop260" offset=".278"/><stop style="stop-opacity:1;stop-color:#fff" id="stop262" offset=".663"/><stop style="stop-opacity:1;stop-color:#fff" id="stop264" offset="1"/></linearGradient><clipPath id="clipPath292" clipPathUnits="userSpaceOnUse"><path id="path290" d="M 25.1365,72.4005 H 68.6018 V 8.33762 H 25.1365 Z"/></clipPath><clipPath id="clipPath296" clipPathUnits="userSpaceOnUse"><path id="path294" d="m 25.137,31.847 c 0.47,-0.664 1.046,-1.253 1.728,-1.714 5.13,-3.466 20.493,-13.403 39.128,-21.273 0.83,-0.351 1.72,-0.524 2.609,-0.523 V 27.619 L 34.299,72.401 Z"/></clipPath><clipPath id="clipPath300" clipPathUnits="userSpaceOnUse"><path id="path298" d="M -32768,32767 H 32767 V -32768 H -32768 Z"/></clipPath><linearGradient id="linearGradient306" x1="0" x2="1" y1="0" y2="0" gradientTransform="matrix(-16.350126,-24.715305,-24.715305,16.350126,62.317532,56.796066)" gradientUnits="userSpaceOnUse" spreadMethod="pad"><stop style="stop-opacity:1;stop-color:#fff" id="stop302" offset="0"/><stop style="stop-opacity:0;stop-color:#fff" id="stop304" offset="1"/></linearGradient><mask id="mask308" width="1" height="1" x="0" y="0" maskUnits="userSpaceOnUse"><g id="g318"><g id="g316" clip-path="url(#clipPath300)"><g id="g314"><g id="g312"><path d="M -32768,32767 H 32767 V -32768 H -32768 Z" style="fill:url(#linearGradient306);stroke:none" id="path310"/></g></g></g></g></mask><linearGradient id="linearGradient324" x1="0" x2="1" y1="0" y2="0" gradientTransform="matrix(-16.350126,-24.715305,-24.715305,16.350126,62.317532,56.796066)" gradientUnits="userSpaceOnUse" spreadMethod="pad"><stop style="stop-opacity:1;stop-color:#fff" id="stop320" offset="0"/><stop style="stop-opacity:1;stop-color:#fff" id="stop322" offset="1"/></linearGradient><clipPath id="clipPath350" clipPathUnits="userSpaceOnUse"><path id="path348" d="M 68.6018,72.4005 H 112.06 V 8.33763 H 68.6018 Z"/></clipPath><clipPath id="clipPath354" clipPathUnits="userSpaceOnUse"><path id="path352" d="M 102.904,72.401 68.602,27.619 V 8.337 c 0.879,0.002 1.759,0.176 2.581,0.523 18.635,7.871 33.998,17.807 39.128,21.273 0.692,0.469 1.275,1.067 1.749,1.744 z"/></clipPath><clipPath id="clipPath358" clipPathUnits="userSpaceOnUse"><path id="path356" d="M -32768,32767 H 32767 V -32768 H -32768 Z"/></clipPath><linearGradient id="linearGradient366" x1="0" x2="1" y1="0" y2="0" gradientTransform="matrix(26.076679,-12.136224,-12.136224,-26.076679,77.237564,44.33226)" gradientUnits="userSpaceOnUse" spreadMethod="pad"><stop style="stop-opacity:1;stop-color:#fff" id="stop360" offset="0"/><stop style="stop-opacity:0;stop-color:#fff" id="stop362" offset=".438"/><stop style="stop-opacity:0;stop-color:#fff" id="stop364" offset="1"/></linearGradient><mask id="mask368" width="1" height="1" x="0" y="0" maskUnits="userSpaceOnUse"><g id="g378"><g id="g376" clip-path="url(#clipPath358)"><g id="g374"><g id="g372"><path d="M -32768,32767 H 32767 V -32768 H -32768 Z" style="fill:url(#linearGradient366);stroke:none" id="path370"/></g></g></g></g></mask><linearGradient id="linearGradient386" x1="0" x2="1" y1="0" y2="0" gradientTransform="matrix(26.076679,-12.136224,-12.136224,-26.076679,77.237564,44.33226)" gradientUnits="userSpaceOnUse" spreadMethod="pad"><stop style="stop-opacity:1;stop-color:#fff" id="stop380" offset="0"/><stop style="stop-opacity:1;stop-color:#fff" id="stop382" offset=".438"/><stop style="stop-opacity:1;stop-color:#fff" id="stop384" offset="1"/></linearGradient><clipPath id="clipPath412" clipPathUnits="userSpaceOnUse"><path id="path410" d="M 68.6018,153.42 H 128.93 V 31.8777 H 68.6018 Z"/></clipPath><clipPath id="clipPath416" clipPathUnits="userSpaceOnUse"><path id="path414" d="m 102.904,72.401 9.156,-40.524 c 0.335,0.479 0.624,0.989 0.825,1.544 8.936,24.609 14.364,48.213 15.901,55.274 0.182,0.84 0.184,1.7 0.046,2.538 l -60.23,62.187 z"/></clipPath><clipPath id="clipPath420" clipPathUnits="userSpaceOnUse"><path id="path418" d="M -32768,32767 H 32767 V -32768 H -32768 Z"/></clipPath><linearGradient id="linearGradient428" x1="0" x2="1" y1="0" y2="0" gradientTransform="matrix(25.475777,16.350124,16.350124,-25.475777,92.165764,93.826584)" gradientUnits="userSpaceOnUse" spreadMethod="pad"><stop style="stop-opacity:1;stop-color:#fff" id="stop422" offset="0"/><stop style="stop-opacity:0;stop-color:#fff" id="stop424" offset=".513"/><stop style="stop-opacity:0;stop-color:#fff" id="stop426" offset="1"/></linearGradient><mask id="mask430" width="1" height="1" x="0" y="0" maskUnits="userSpaceOnUse"><g id="g440"><g id="g438" clip-path="url(#clipPath420)"><g id="g436"><g id="g434"><path d="M -32768,32767 H 32767 V -32768 H -32768 Z" style="fill:url(#linearGradient428);stroke:none" id="path432"/></g></g></g></g></mask><linearGradient id="linearGradient448" x1="0" x2="1" y1="0" y2="0" gradientTransform="matrix(25.475777,16.350124,16.350124,-25.475777,92.165764,93.826584)" gradientUnits="userSpaceOnUse" spreadMethod="pad"><stop style="stop-opacity:1;stop-color:#fff" id="stop442" offset="0"/><stop style="stop-opacity:1;stop-color:#fff" id="stop444" offset=".513"/><stop style="stop-opacity:1;stop-color:#fff" id="stop446" offset="1"/></linearGradient><linearGradient id="linearGradient8317" x1="234.497" x2="237.014" y1="65.071" y2="563.153" gradientTransform="matrix(0.26458333,0,0,0.26458333,-143.97755,109.31482)" gradientUnits="userSpaceOnUse" xlink:href="#linearGradient11343"/><linearGradient id="linearGradient11343"><stop id="stop11339" offset="0" style="stop-color:#d3d3d3;stop-opacity:1"/><stop id="stop11341" offset="1" style="stop-color:#fff;stop-opacity:1"/></linearGradient><linearGradient id="linearGradient8319" x1="455.217" x2="551.149" y1="186.413" y2="182.416" gradientTransform="matrix(0.26458333,0,0,0.26458333,-243.56619,103.6744)" gradientUnits="userSpaceOnUse" xlink:href="#linearGradient8611"/><linearGradient id="linearGradient8611"><stop style="stop-color:#ddd;stop-opacity:1" id="stop8607" offset="0"/><stop style="stop-color:#f3f3f3;stop-opacity:1" id="stop8609" offset="1"/></linearGradient><linearGradient id="linearGradient8321" x1="188.926" x2="278.516" y1="62.392" y2="60.393" gradientTransform="matrix(0.26458333,0,0,0.26458333,-143.97755,109.31482)" gradientUnits="userSpaceOnUse" xlink:href="#linearGradient7381"/><linearGradient id="linearGradient7381"><stop style="stop-color:#d7d7d7;stop-opacity:1" id="stop7585" offset="0"/><stop style="stop-color:#fff;stop-opacity:1" id="stop7587" offset="1"/></linearGradient><linearGradient id="linearGradient8323" x1="202.682" x2="223.682" y1="477.024" y2="440.024" gradientTransform="matrix(0.26458333,0,0,0.26458333,-143.97755,109.31482)" gradientUnits="userSpaceOnUse" xlink:href="#linearGradient8350"/><linearGradient id="linearGradient8350"><stop style="stop-color:#fff;stop-opacity:1" id="stop8346" offset="0"/><stop style="stop-color:#e2e2e2;stop-opacity:1" id="stop8348" offset="1"/></linearGradient><linearGradient id="linearGradient8325" x1="339.235" x2="396.369" y1="370.086" y2="339.28" gradientTransform="matrix(0.26458333,0,0,0.26458333,-143.97755,109.31482)" gradientUnits="userSpaceOnUse" xlink:href="#linearGradient8599"/><linearGradient id="linearGradient8599"><stop style="stop-color:#e9e9e9;stop-opacity:1" id="stop8595" offset="0"/><stop style="stop-color:#cecece;stop-opacity:1" id="stop8597" offset="1"/></linearGradient><linearGradient id="linearGradient8327" x1="244.194" x2="282.464" y1="528.799" y2="543.788" gradientTransform="matrix(0.26458333,0,0,0.26458333,-143.97755,109.31482)" gradientUnits="userSpaceOnUse" xlink:href="#linearGradient8052"/><linearGradient id="linearGradient8052"><stop id="stop8048" offset="0" style="stop-color:#fff;stop-opacity:1"/><stop id="stop8050" offset="1" style="stop-color:#ececec;stop-opacity:1"/></linearGradient><linearGradient id="linearGradient8329" x1="162.096" x2="181.413" y1="530.502" y2="504.853" gradientTransform="matrix(0.26458333,0,0,0.26458333,-143.97755,109.31482)" gradientUnits="userSpaceOnUse" xlink:href="#linearGradient11361"/><linearGradient id="linearGradient11361"><stop id="stop11357" offset="0" style="stop-color:#e2e2e2;stop-opacity:1"/><stop id="stop11359" offset="1" style="stop-color:#ededed;stop-opacity:1"/></linearGradient><linearGradient id="linearGradient8331" x1="150.102" x2="97.473" y1="344.301" y2="267.689" gradientTransform="matrix(0.26458333,0,0,0.26458333,-143.97755,109.31482)" gradientUnits="userSpaceOnUse" xlink:href="#linearGradient8080"/><linearGradient id="linearGradient8080"><stop style="stop-color:#d7d7d7;stop-opacity:1" id="stop8076" offset="0"/><stop style="stop-color:#f0f0f0;stop-opacity:1" id="stop8078" offset="1"/></linearGradient><linearGradient id="linearGradient6229" x1="246.404" x2="236.271" y1="202.025" y2="495.971" gradientTransform="matrix(0.26458333,0,0,0.26458333,47.464459,46.891091)" gradientUnits="userSpaceOnUse" xlink:href="#linearGradient7775"/><linearGradient id="linearGradient7775"><stop id="stop7771" offset="0" style="stop-color:#ff4109;stop-opacity:1"/><stop id="stop7773" offset="1" style="stop-color:#fc8851;stop-opacity:1"/></linearGradient><linearGradient id="linearGradient6209" x1="233.083" x2="237.014" y1="371.955" y2="563.153" gradientTransform="matrix(0.26458333,0,0,0.26458333,47.183908,43.565864)" gradientUnits="userSpaceOnUse" xlink:href="#linearGradient6235"/><linearGradient id="linearGradient6235"><stop style="stop-color:#d3d3d3;stop-opacity:.01762114" id="stop6231" offset="0"/><stop style="stop-color:#fff;stop-opacity:1" id="stop6233" offset="1"/></linearGradient><linearGradient id="linearGradient6215" x1="202.682" x2="228.278" y1="477.024" y2="435.781" gradientTransform="matrix(0.26458333,0,0,0.26458333,47.183908,43.565864)" gradientUnits="userSpaceOnUse" xlink:href="#linearGradient6241"/><linearGradient id="linearGradient6241"><stop id="stop6237" offset="0" style="stop-color:#fff;stop-opacity:.57268721"/><stop id="stop6239" offset="1" style="stop-color:#e2e2e2;stop-opacity:.00881057"/></linearGradient><linearGradient id="linearGradient6217" x1="339.235" x2="396.369" y1="370.086" y2="339.28" gradientTransform="matrix(0.26458333,0,0,0.26458333,47.183908,43.565864)" gradientUnits="userSpaceOnUse" xlink:href="#linearGradient8599"/><linearGradient id="linearGradient6219" x1="244.194" x2="282.464" y1="528.799" y2="543.788" gradientTransform="matrix(0.26458333,0,0,0.26458333,47.183908,43.565864)" gradientUnits="userSpaceOnUse" xlink:href="#linearGradient8409"/><linearGradient id="linearGradient8409"><stop style="stop-color:#fff;stop-opacity:1" id="stop8405" offset="0"/><stop style="stop-color:#bfbfbf;stop-opacity:1" id="stop8407" offset="1"/></linearGradient><linearGradient id="linearGradient6221" x1="162.096" x2="187.413" y1="530.502" y2="491.853" gradientTransform="matrix(0.26458333,0,0,0.26458333,47.183908,43.565864)" gradientUnits="userSpaceOnUse" xlink:href="#linearGradient6247"/><linearGradient id="linearGradient6247"><stop style="stop-color:#e2e2e2;stop-opacity:0" id="stop6243" offset="0"/><stop style="stop-color:#f6f6f6;stop-opacity:1" id="stop6245" offset="1"/></linearGradient><linearGradient id="linearGradient6223" x1="51.77" x2="108.984" y1="126.198" y2="126.198" gradientTransform="matrix(0.26458333,0,0,0.26458333,47.183908,43.565864)" gradientUnits="userSpaceOnUse" xlink:href="#linearGradient8605"/><linearGradient id="linearGradient8605"><stop id="stop8601" offset="0" style="stop-color:#d7d7d7;stop-opacity:1"/><stop id="stop8603" offset="1" style="stop-color:#e3e3e3;stop-opacity:1"/></linearGradient><linearGradient id="linearGradient8175" x1="130.892" x2="143.719" y1="101.258" y2="93.832" gradientUnits="userSpaceOnUse" xlink:href="#linearGradient8173"/><linearGradient id="linearGradient8173"><stop id="stop8169" offset="0" style="stop-color:#d8dadb;stop-opacity:1"/><stop id="stop8171" offset="1" style="stop-color:#d8dadb;stop-opacity:.07488987"/></linearGradient></defs><g id="g10" transform="matrix(1.3333333,0,0,-1.3333333,0,2160.0002)"><path id="path24" style="fill:#fff;fill-opacity:1;fill-rule:nonzero;stroke:none;stroke-width:1" d="M 1225.2073,864.76613 C 1093.1592,1171.8284 921.934,1461.6197 872.60495,1543.1328 c -20.26802,33.48 -53.76605,56.4031 -92.47509,63.2161 -1.053,0.207 -2.115,0.387 -3.114,0.54 -4.44601,0.666 -9.31501,1.377 -14.44502,2.079 -7.76701,1.089 -16.34401,2.205 -25.61402,3.303 -6.12001,0.729 -12.51902,1.44 -19.19702,2.133 -6.66001,0.684 -13.52702,1.341 -20.56502,1.944 -7.08301,0.603 -14.32802,1.161 -21.69003,1.647 -20.19602,1.332 -39.53704,2.007 -57.49205,2.007 -30.50103,0 -64.43107,-1.926 -100.83611,-5.715 -5.895,-0.612 -11.61001,-1.251 -17.07301,-1.908 -10.04401,-1.17 -19.34102,-2.394 -27.68403,-3.555 -4.08601,-0.567 -7.92901,-1.116 -11.53801,-1.656 -0.036,-0.01 -1.836,-0.27 -1.836,-0.27 -39.14104,-5.859 -73.49408,-28.422 -94.5181,-61.9831 -0.198,-0.315 -0.936,-1.494 -1.107,-1.782 -26.72103,-44.145 -81.18008,-136.0081 -145.69215,-255.2762 -4.086,-7.542 -8.20801,-15.2011 -12.35701,-22.9501 -5.50801,-10.287 -11.08801,-20.763 -16.71302,-31.392 -2.844,-5.4 -5.706,-10.818 -8.59501,-16.326 -3.546,-6.741 -7.101,-13.554 -10.67401,-20.43 -3.627,-6.984 -7.272,-14.013 -10.91701,-21.0961 -2.88,-5.58 -13.06801,-25.515 -13.06801,-25.515 -11.97001,-23.508 -23.81403,-47.169 -35.19004,-70.2991 l -4.365,-8.901 C 70.983144,999.70327 39.006112,930.3402 10.809083,864.76613 1.4490739,842.99511 -2.0159296,818.98308 0.72007317,795.79006 c 0,0 0.0810001,-0.738 0.12600013,-1.116 0.4410004,-3.564 0.972001,-6.91201 1.6200017,-10.15201 0.2250002,-1.26 0.4950005,-2.511 0.7920008,-3.744 C 16.614089,719.54198 53.361126,561.18682 112.66219,380.06164 c 2.25,-6.86701 4.536,-13.77001 6.84,-20.67302 3.11401,-9.31501 6.30001,-18.69302 9.52201,-28.08003 6.78601,-19.79102 13.26602,-38.14204 19.74602,-55.98906 0.459,-1.278 0.945,-2.52 1.476,-3.78 0.675,-1.719 1.377,-3.438 2.13301,-5.121 8.595,-19.33202 21.83402,-36.63904 38.29503,-50.04906 3.08701,-2.52 6.05701,-4.752 9.05401,-6.813 0.261,-0.18 0.522,-0.36 0.792,-0.531 11.50202,-7.77601 23.86803,-15.90302 36.76504,-24.17403 l 7.92001,-5.049 c 5.382,-3.41101 11.07901,-7.00201 17.07302,-10.73701 6.003,-3.73501 12.30301,-7.61401 18.94502,-11.66402 6.579,-3.996 13.44601,-8.136 20.60102,-12.39301 7.137,-4.248 14.55301,-8.61301 22.22102,-13.05001 7.65001,-4.44601 15.56101,-8.97301 23.71502,-13.59001 8.15401,-4.59901 16.55102,-9.27901 25.16403,-14.01302 C 437.97651,68.643325 502.75858,37.107293 565.45264,10.629266 582.14766,3.5732592 599.83268,2.556265e-4 618.0127,2.556265e-4 c 18.18001,0 35.86503,3.5730035735 52.55105,10.6200103735 171.75617,72.540074 312.44432,162.927164 364.84235,198.342204 3.321,2.241 6.615,4.689 10.125,7.56 18.9,15.45302 33.2911,35.68504 41.6071,58.48206 0.018,0.063 0.045,0.117 0.072,0.18 20.475,56.40306 40.554,116.73912 59.688,179.35219 8.721,28.51202 17.307,57.76205 25.542,86.92208 4.1761,14.76902 8.1451,29.12403 11.9161,43.02905 24.957,91.88109 41.256,163.37716 48.735,197.7932 0.873,3.969 1.557,8.073 2.079,12.42001 0.045,0.351 0.09,0.72 0.135,1.089 2.691,23.50802 -0.792,47.35805 -10.098,68.97607"/><g id="g8008" transform="matrix(9.4849259,0,0,-9.4808877,-414.53235,2027.5361)" style="stroke-width:.29892161"><g id="g8152" transform="translate(191.16146,-65.74896)" style="stroke-width:.29892161"><path style="display:inline;opacity:1;fill:url(#linearGradient8317);fill-opacity:1;fill-rule:evenodd;stroke:#e5e5e5;stroke-width:.07908967px;stroke-linecap:butt;stroke-linejoin:miter;stroke-opacity:.4517544" id="path7567-1" d="m -82.29974,134.20925 -32.09076,77.13811 32.5128,41.9426 32.45067,-42.18765 z"/><path style="display:inline;opacity:1;fill:url(#linearGradient8319);fill-opacity:1;fill-rule:evenodd;stroke:#e5e5e5;stroke-width:.07908967px;stroke-linecap:butt;stroke-linejoin:miter;stroke-opacity:.4517544" id="path6995-5" d="m -139.24302,192.56089 56.94328,-58.35164 c 0,0 -17.577992,-15.64567 -17.577992,-15.64567 0,0 -15.842478,25.44328 -20.425328,34.96148 -4.58282,9.5182 -18.93996,39.03582 -18.93996,39.03583 z"/><path style="display:inline;opacity:1;fill:#d8dadb;fill-opacity:1;fill-rule:evenodd;stroke:#e5e5e5;stroke-width:.07908967px;stroke-linecap:butt;stroke-linejoin:miter;stroke-opacity:.4517544" id="path6995-9-9" d="m -25.35646,192.56088 -4.5992,21.84332 c -0.88132,-0.17627 -52.34408,-80.19495 -52.34408,-80.19495 l 17.57802,-15.64567 c 0,0 15.84245,25.44328 20.4253,34.96148 4.58282,9.5182 18.93996,39.03582 18.93996,39.03582 z"/><path style="display:inline;opacity:1;fill:url(#linearGradient8321);fill-opacity:1;fill-rule:evenodd;stroke:#e5e5e5;stroke-width:.07908967px;stroke-linecap:butt;stroke-linejoin:miter;stroke-opacity:.4517544" id="path7557-7" d="m -99.877732,118.56358 17.577992,15.64567 17.57802,-15.64567 c 0,0 -4.99383,-1.8775 -15.74588,-1.8775 -10.752042,0 -19.410132,1.8775 -19.410132,1.8775 z"/><path style="display:inline;opacity:1;fill:url(#linearGradient8323);fill-opacity:1;fill-rule:evenodd;stroke:#e5e5e5;stroke-width:.07908967px;stroke-linecap:butt;stroke-linejoin:miter;stroke-opacity:.4517544" id="path7779-7" d="m -114.3905,211.34736 32.5128,41.9426 14.07583,-18.15668 -44.42084,-28.80408 z"/><path style="display:inline;opacity:1;fill:url(#linearGradient8325);fill-opacity:1;fill-rule:evenodd;stroke:#e5e5e5;stroke-width:.07908967px;stroke-linecap:butt;stroke-linejoin:miter;stroke-opacity:.4517544" id="path7796-6" d="m -82.29974,134.20925 32.87271,76.89306 8.8632,38.39443 10.60817,-35.09254 z"/><path style="display:inline;opacity:1;fill:url(#linearGradient8327);fill-opacity:1;fill-rule:evenodd;stroke:#e5e5e5;stroke-width:.07908967px;stroke-linecap:butt;stroke-linejoin:miter;stroke-opacity:.4517544" id="path7798-7" d="m -49.42703,211.10231 -32.45067,42.18765 0.74043,18.35844 c 0,0 3.12542,-0.20668 8.33115,-3.20149 5.20573,-2.9948 28.9329,-14.8891 30.58761,-16.91958 l 1.65468,-2.03049 z"/><path style="display:inline;opacity:1;fill:url(#linearGradient8329);fill-opacity:1;fill-rule:evenodd;stroke:#e5e5e5;stroke-width:.07908967px;stroke-linecap:butt;stroke-linejoin:miter;stroke-opacity:.4517544" id="path7798-4-3" d="m -114.3905,211.34736 32.45067,42.18766 0.80256,18.11338 c 0,0 -4.66841,0.0384 -9.87414,-2.95642 -5.205732,-2.99481 -28.93293,-14.88911 -30.58761,-16.91959 l -1.6547,-2.03049 z"/><path style="display:inline;opacity:1;fill:url(#linearGradient8331);fill-opacity:1;fill-rule:evenodd;stroke:#e5e5e5;stroke-width:.07908967px;stroke-linecap:butt;stroke-linejoin:miter;stroke-opacity:.4517544" id="path7796-8-6" d="m -82.29974,134.20925 -32.09076,77.13811 -8.86319,38.39444 -15.98933,-57.18091 z"/></g><path id="path6227" d="m 112.50304,92.479241 c -2.96704,0.102148 -2.11016,20.525239 -7.48636,25.517819 -4.16071,3.5359 -4.25601,-8.36637 -7.968511,-7.44606 -3.712501,0.92031 -2.895132,5.48595 -3.761002,9.59321 -0.865849,4.10726 -2.107959,10.09068 -3.561559,14.72055 -1.45362,4.62987 -7.593009,3.56633 -7.386611,-0.5395 0.206402,-4.10584 -2.455989,-6.83978 -5.033298,-3.28197 -2.57733,3.5578 -3.42609,7.54422 -3.530018,12.66847 -0.103931,5.12426 2.092619,12.73302 4.080378,16.94161 1.987788,4.20858 3.147089,5.37212 5.330928,7.91786 2.183871,2.54574 4.71406,4.63283 7.473982,6.19135 2.759919,1.55853 5.269518,2.85868 8.482168,3.70985 3.212623,0.85118 6.957723,1.03405 10.060363,1.02836 3.10263,-0.006 5.7047,-0.34862 8.38811,-0.99373 2.6834,-0.64512 3.7815,-0.82349 8.3561,-3.20394 4.57456,-2.38045 12.72892,-10.6605 15.1443,-15.65848 2.41538,-4.99797 2.78976,-7.52674 3.29385,-10.69599 0.50411,-3.16924 0.67384,-4.82297 0.24958,-8.71781 -0.42423,-3.89484 -1.22375,-6.70074 -2.84684,-10.3327 -1.62306,-3.63197 -3.39262,-7.89633 -7.53703,-10.63501 -4.1444,-2.73868 -4.62158,5.80078 -5.2932,8.81806 -0.67164,3.01729 -4.03968,7.40332 -6.67866,4.05816 -2.63896,-3.34517 -2.56043,-6.38704 -3.71555,-11.47579 -1.15509,-5.08875 -1.27862,-14.64458 -2.29081,-19.25981 -1.01219,-4.615222 -1.27005,-9.006617 -3.77031,-8.924509 z m 18.38854,8.778269 c -1.44135,-0.0334 -2.94884,2.10457 -2.87941,4.03748 0.1307,3.6384 6.6864,3.89449 6.60168,-0.24546 -0.0397,-1.94061 -2.45047,-3.7625 -3.72227,-3.79202 z" style="display:inline;opacity:1;fill:url(#linearGradient6229);fill-opacity:1;stroke:#e5e5e5;stroke-width:.07356913;stroke-opacity:.4517544"/><g id="g8167" style="stroke-width:.29892161"><path style="display:inline;opacity:.46500017;fill:url(#linearGradient6209);fill-opacity:1;fill-rule:evenodd;stroke:#e5e5e5;stroke-width:.07908967px;stroke-linecap:butt;stroke-linejoin:miter;stroke-opacity:.4517544" id="path7567-1-3" d="M 108.86172,68.460294 76.770958,145.5984 109.28376,187.541 141.73443,145.35335 Z"/><path style="display:inline;opacity:.46500017;fill:url(#linearGradient6215);fill-opacity:1;fill-rule:evenodd;stroke:none;stroke-width:.07908967px;stroke-linecap:butt;stroke-linejoin:miter;stroke-opacity:.4517544" id="path7779-7-3" d="m 76.770958,145.5984 32.450672,42.18766 14.13796,-18.40174 -44.420842,-28.80408 z"/><path style="display:inline;opacity:.46500017;fill:url(#linearGradient6217);fill-opacity:1;fill-rule:evenodd;stroke:#e5e5e5;stroke-width:.07908967px;stroke-linecap:butt;stroke-linejoin:miter;stroke-opacity:.4517544" id="path7796-6-2" d="m 108.86172,68.460294 32.87271,76.893056 8.8632,38.39443 10.60817,-35.09254 z"/><path style="display:inline;opacity:.46500017;fill:url(#linearGradient6219);fill-opacity:1;fill-rule:evenodd;stroke:#e5e5e5;stroke-width:.07908967px;stroke-linecap:butt;stroke-linejoin:miter;stroke-opacity:.4517544" id="path7798-7-0" d="m 141.73443,145.35335 -32.45067,42.18765 0.74043,18.35844 c 0,0 3.12542,-0.20668 8.33115,-3.20149 5.20573,-2.9948 28.9329,-14.8891 30.58761,-16.91958 l 1.65468,-2.03049 z"/><path style="display:inline;opacity:.46500017;fill:url(#linearGradient6221);fill-opacity:1;fill-rule:evenodd;stroke:none;stroke-width:.07908967px;stroke-linecap:butt;stroke-linejoin:miter;stroke-opacity:.4517544" id="path7798-4-3-6" d="m 76.770958,145.5984 32.450672,42.18766 0.80256,18.11338 c 0,0 -4.66841,0.0384 -9.87414,-2.95642 -5.205732,-2.99481 -28.932932,-14.88911 -30.587612,-16.91959 l -1.6547,-2.03049 z"/><path style="display:inline;opacity:.46500017;fill:url(#linearGradient6223);fill-opacity:1;fill-rule:evenodd;stroke:#e5e5e5;stroke-width:.07908967px;stroke-linecap:butt;stroke-linejoin:miter;stroke-opacity:.4517544" id="path7796-8-6-1" d="M 108.86172,68.460294 76.770958,145.5984 67.907768,183.99284 51.918438,126.81193 Z"/><path style="display:inline;opacity:.5;fill:url(#linearGradient8175);fill-opacity:1;fill-rule:evenodd;stroke:#e5e5e5;stroke-width:.07908967px;stroke-linecap:butt;stroke-linejoin:miter;stroke-opacity:.4517544" id="path6995-9-9-4" d="m 165.805,126.81191 -4.5992,21.84332 c -0.88132,-0.17627 -52.34408,-80.194936 -52.34408,-80.194936 l 17.57802,-15.64567 c 0,0 15.84245,25.44328 20.4253,34.96148 4.58282,9.5182 18.93996,39.035806 18.93996,39.035806 z"/></g></g></g></svg>